Lora-Bold Italic.ufo
<glyph name="comma" format="1">
  <advance width="485"/>
  <unicode hex="002C"/>
  <outline>
    <contour>
      <point x="140" y="201"/>
      <point x="88" y="160"/>
      <point x="88" y="86" type="curve" smooth="yes"/>
      <point x="88" y="37"/>
      <point x="126" y="-9"/>
      <point x="178" y="-9" type="curve" smooth="yes"/>
      <point x="193" y="-9"/>
      <point x="209" y="-7"/>
      <point x="226" y="0" type="curve"/>
      <point x="229" y="0" type="line"/>
      <point x="229" y="-6"/>
      <point x="229" y="-12"/>
      <point x="229" y="-17" type="curve" smooth="yes"/>
      <point x="229" y="-138"/>
      <point x="162" y="-271"/>
      <point x="115" y="-325" type="curve"/>
      <point x="166" y="-366" type="line"/>
      <point x="279" y="-239"/>
      <point x="334" y="-61"/>
      <point x="334" y="40" type="curve" smooth="yes"/>
      <point x="334" y="134"/>
      <point x="285" y="201"/>
      <point x="203" y="201" type="curve" smooth="yes"/>
    </contour>
  </outline>
</glyph>
<glyph name="zero" format="1">
  <advance width="1223"/>
  <unicode hex="0030"/>
  <outline>
    <contour>
      <point x="284" y="1467"/>
      <point x="129" y="1061"/>
      <point x="112" y="717" type="curve" smooth="yes"/>
      <point x="94" y="375"/>
      <point x="180" y="-33"/>
      <point x="587" y="-33" type="curve" smooth="yes"/>
      <point x="958" y="-33"/>
      <point x="1108" y="377"/>
      <point x="1126" y="717" type="curve" smooth="yes"/>
      <point x="1142" y="1059"/>
      <point x="1042" y="1467"/>
      <point x="655" y="1467" type="curve" smooth="yes"/>
    </contour>
    <contour>
      <point x="901" y="1389"/>
      <point x="945" y="1010"/>
      <point x="928" y="678" type="curve" smooth="yes"/>
      <point x="912" y="377"/>
      <point x="829" y="47"/>
      <point x="596" y="47" type="curve" smooth="yes"/>
      <point x="331" y="47"/>
      <point x="295" y="469"/>
      <point x="309" y="754" type="curve" smooth="yes"/>
      <point x="325" y="1059"/>
      <point x="426" y="1389"/>
      <point x="659" y="1389" type="curve" smooth="yes"/>
    </contour>
  </outline>
</glyph>
<glyph name="two" format="1">
  <advance width="1075"/>
  <unicode hex="0032"/>
  <outline>
    <contour>
      <point x="284" y="1467"/>
      <point x="122" y="1290"/>
      <point x="122" y="1159" type="curve" smooth="yes"/>
      <point x="122" y="1097"/>
      <point x="164" y="1057"/>
      <point x="220" y="1057" type="curve" smooth="yes"/>
      <point x="278" y="1057"/>
      <point x="316" y="1103"/>
      <point x="316" y="1152" type="curve" smooth="yes"/>
      <point x="316" y="1179"/>
      <point x="310" y="1214"/>
      <point x="284" y="1242" type="curve"/>
      <point x="319" y="1322"/>
      <point x="417" y="1387"/>
      <point x="530" y="1387" type="curve" smooth="yes"/>
      <point x="726" y="1387"/>
      <point x="781" y="1236"/>
      <point x="773" y="1070" type="curve" smooth="yes"/>
      <point x="766" y="935"/>
      <point x="650" y="768"/>
      <point x="491" y="625" type="curve" smooth="yes"/>
      <point x="274" y="432"/>
      <point x="69" y="289"/>
      <point x="55" y="0" type="curve"/>
      <point x="941" y="0" type="line"/>
      <point x="968" y="283" type="line"/>
      <point x="906" y="283" type="line"/>
      <point x="898" y="123"/>
      <point x="755" y="135"/>
      <point x="556" y="141" type="curve" smooth="yes"/>
      <point x="199" y="151" type="line"/>
      <point x="227" y="271"/>
      <point x="354" y="397"/>
      <point x="548" y="545" type="curve" smooth="yes"/>
      <point x="855" y="780"/>
      <point x="963" y="957"/>
      <point x="970" y="1095" type="curve" smooth="yes"/>
      <point x="985" y="1373"/>
      <point x="784" y="1467"/>
      <point x="567" y="1467" type="curve" smooth="yes"/>
    </contour>
  </outline>
</glyph>
<glyph name="seven" format="1">
  <advance width="926"/>
  <unicode hex="0037"/>
  <outline>
    <contour>
      <point x="80" y="1434" type="line"/>
      <point x="66" y="1143" type="line"/>
      <point x="115" y="1143" type="line"/>
      <point x="121" y="1255"/>
      <point x="187" y="1293"/>
      <point x="297" y="1294" type="curve" smooth="yes"/>
      <point x="837" y="1297" type="line"/>
      <point x="692" y="1014"/>
      <point x="540" y="667"/>
      <point x="453" y="475" type="curve" smooth="yes"/>
      <point x="392" y="340"/>
      <point x="295" y="147"/>
      <point x="291" y="59" type="curve" smooth="yes"/>
      <point x="289" y="10"/>
      <point x="307" y="-29"/>
      <point x="361" y="-33" type="curve" smooth="yes"/>
      <point x="426" y="-37"/>
      <point x="457" y="27"/>
      <point x="477" y="94" type="curve" smooth="yes"/>
      <point x="625" y="575"/>
      <point x="711" y="891"/>
      <point x="932" y="1298" type="curve"/>
      <point x="938" y="1434" type="line"/>
    </contour>
  </outline>
</glyph>
<glyph name="less" format="1">
  <advance width="1104"/>
  <unicode hex="003C"/>
  <outline>
    <contour>
      <point x="72" y="709" type="line"/>
      <point x="66" y="575" type="line"/>
      <point x="955" y="178" type="line"/>
      <point x="963" y="305" type="line"/>
      <point x="204" y="647" type="line"/>
      <point x="204" y="649" type="line"/>
      <point x="998" y="991" type="line"/>
      <point x="1006" y="1114" type="line"/>
    </contour>
  </outline>
</glyph>
<glyph name="question" format="1">
  <advance width="969"/>
  <unicode hex="003F"/>
  <outline>
    <contour>
      <point x="274" y="1467"/>
      <point x="104" y="1295"/>
      <point x="104" y="1172" type="curve" smooth="yes"/>
      <point x="104" y="1112"/>
      <point x="146" y="1071"/>
      <point x="200" y="1071" type="curve" smooth="yes"/>
      <point x="256" y="1071"/>
      <point x="293" y="1115"/>
      <point x="293" y="1163" type="curve" smooth="yes"/>
      <point x="293" y="1188"/>
      <point x="287" y="1222"/>
      <point x="263" y="1244" type="curve"/>
      <point x="277" y="1306"/>
      <point x="378" y="1387"/>
      <point x="497" y="1387" type="curve" smooth="yes"/>
      <point x="689" y="1387"/>
      <point x="743" y="1263"/>
      <point x="732" y="1115" type="curve" smooth="yes"/>
      <point x="706" y="802"/>
      <point x="311" y="707"/>
      <point x="300" y="522" type="curve" smooth="yes"/>
      <point x="296" y="422"/>
      <point x="403" y="385"/>
      <point x="454" y="385" type="curve" smooth="yes"/>
      <point x="515" y="385"/>
      <point x="573" y="395"/>
      <point x="618" y="422" type="curve"/>
      <point x="597" y="494" type="line"/>
      <point x="571" y="483"/>
      <point x="538" y="479"/>
      <point x="519" y="479" type="curve" smooth="yes"/>
      <point x="454" y="479"/>
      <point x="436" y="514"/>
      <point x="438" y="547" type="curve" smooth="yes"/>
      <point x="446" y="684"/>
      <point x="884" y="832"/>
      <point x="915" y="1109" type="curve" smooth="yes"/>
      <point x="935" y="1281"/>
      <point x="847" y="1467"/>
      <point x="532" y="1467" type="curve" smooth="yes"/>
    </contour>
    <contour>
      <point x="398" y="209"/>
      <point x="340" y="154"/>
      <point x="336" y="88" type="curve" smooth="yes"/>
      <point x="334" y="12"/>
      <point x="383" y="-33"/>
      <point x="441" y="-33" type="curve" smooth="yes"/>
      <point x="504" y="-33"/>
      <point x="555" y="21"/>
      <point x="557" y="88" type="curve" smooth="yes"/>
      <point x="562" y="154"/>
      <point x="517" y="209"/>
      <point x="455" y="209" type="curve" smooth="yes"/>
    </contour>
  </outline>
</glyph>
<glyph name="at" format="1">
  <advance width="1622"/>
  <unicode hex="0040"/>
  <outline>
    <contour>
      <point x="351" y="1276"/>
      <point x="105" y="870"/>
      <point x="89" y="526" type="curve" smooth="yes"/>
      <point x="68" y="133"/>
      <point x="300" y="-205"/>
      <point x="804" y="-195" type="curve" smooth="yes"/>
      <point x="1019" y="-190"/>
      <point x="1209" y="-119"/>
      <point x="1348" y="33" type="curve"/>
      <point x="1301" y="84" type="line"/>
      <point x="1150" y="-86"/>
      <point x="947" y="-115"/>
      <point x="806" y="-111" type="curve" smooth="yes"/>
      <point x="503" y="-102"/>
      <point x="216" y="94"/>
      <point x="238" y="539" type="curve" smooth="yes"/>
      <point x="257" y="883"/>
      <point x="482" y="1194"/>
      <point x="820" y="1221" type="curve" smooth="yes"/>
      <point x="1160" y="1247"/>
      <point x="1432" y="1061"/>
      <point x="1395" y="567" type="curve" smooth="yes"/>
      <point x="1375" y="326"/>
      <point x="1246" y="180"/>
      <point x="1131" y="205" type="curve" smooth="yes"/>
      <point x="1058" y="221"/>
      <point x="1049" y="332"/>
      <point x="1062" y="438" type="curve" smooth="yes"/>
      <point x="1080" y="573"/>
      <point x="1119" y="774"/>
      <point x="1152" y="961" type="curve"/>
      <point x="1084" y="979"/>
      <point x="1002" y="987"/>
      <point x="939" y="987" type="curve" smooth="yes"/>
      <point x="625" y="987"/>
      <point x="453" y="727"/>
      <point x="437" y="428" type="curve" smooth="yes"/>
      <point x="427" y="227"/>
      <point x="517" y="143"/>
      <point x="632" y="143" type="curve" smooth="yes"/>
      <point x="720" y="143"/>
      <point x="845" y="186"/>
      <point x="961" y="498" type="curve"/>
      <point x="965" y="498" type="line"/>
      <point x="929" y="340"/>
      <point x="892" y="168"/>
      <point x="1080" y="135" type="curve" smooth="yes"/>
      <point x="1215" y="111"/>
      <point x="1514" y="221"/>
      <point x="1537" y="651" type="curve" smooth="yes"/>
      <point x="1553" y="979"/>
      <point x="1326" y="1329"/>
      <point x="840" y="1303" type="curve" smooth="yes"/>
    </contour>
    <contour>
      <point x="937" y="926"/>
      <point x="980" y="920"/>
      <point x="1010" y="907" type="curve"/>
      <point x="994" y="621"/>
      <point x="818" y="221"/>
      <point x="670" y="221" type="curve" smooth="yes"/>
      <point x="601" y="221"/>
      <point x="566" y="309"/>
      <point x="574" y="446" type="curve" smooth="yes"/>
      <point x="584" y="662"/>
      <point x="693" y="926"/>
      <point x="886" y="926" type="curve" smooth="yes"/>
    </contour>
  </outline>
</glyph>
<glyph name="A" format="1">
  <advance width="1292"/>
  <unicode hex="0041"/>
  <outline>
    <contour>
      <point x="653" y="1473" type="line"/>
      <point x="191" y="324" type="line" smooth="yes"/>
      <point x="129" y="171"/>
      <point x="76" y="70"/>
      <point x="-26" y="68" type="curve"/>
      <point x="-29" y="0" type="line"/>
      <point x="346" y="0" type="line"/>
      <point x="350" y="90" type="line"/>
      <point x="197" y="82" type="line"/>
      <point x="221" y="127"/>
      <point x="235" y="158"/>
      <point x="260" y="223" type="curve" smooth="yes"/>
      <point x="285" y="287"/>
      <point x="312" y="358"/>
      <point x="343" y="442" type="curve"/>
      <point x="867" y="454" type="line"/>
      <point x="926" y="262" type="line" smooth="yes"/>
      <point x="949" y="186"/>
      <point x="973" y="72"/>
      <point x="819" y="68" type="curve"/>
      <point x="817" y="0" type="line"/>
      <point x="1262" y="0" type="line"/>
      <point x="1266" y="90" type="line"/>
      <point x="1133" y="82" type="line"/>
      <point x="1139" y="143"/>
      <point x="1109" y="250"/>
      <point x="1090" y="307" type="curve" smooth="yes"/>
      <point x="699" y="1473" type="line"/>
    </contour>
    <contour>
      <point x="705" y="965"/>
      <point x="777" y="744"/>
      <point x="844" y="530" type="curve"/>
      <point x="375" y="530" type="line"/>
      <point x="417" y="643"/>
      <point x="469" y="781"/>
      <point x="539" y="958" type="curve"/>
      <point x="624" y="1188" type="line"/>
      <point x="628" y="1188" type="line"/>
    </contour>
    <contour>
      <point x="1136" y="10" type="move" name="ogonek"/>
    </contour>
    <contour>
      <point x="660" y="1438" type="move" name="top"/>
    </contour>
  </outline>
</glyph>
<glyph name="B" format="1">
  <advance width="1268"/>
  <unicode hex="0042"/>
  <outline>
    <contour>
      <point x="451" y="1438"/>
      <point x="308" y="1434"/>
      <point x="158" y="1434" type="curve"/>
      <point x="152" y="1343" type="line"/>
      <point x="302" y="1352" type="line"/>
      <point x="295" y="1317"/>
      <point x="289" y="1264"/>
      <point x="287" y="1190" type="curve" smooth="yes"/>
      <point x="242" y="330" type="line"/>
      <point x="234" y="176"/>
      <point x="240" y="72"/>
      <point x="87" y="68" type="curve"/>
      <point x="82" y="0" type="line"/>
      <point x="674" y="0" type="line" smooth="yes"/>
      <point x="951" y="0"/>
      <point x="1160" y="150"/>
      <point x="1172" y="401" type="curve" smooth="yes"/>
      <point x="1184" y="612"/>
      <point x="1045" y="766"/>
      <point x="744" y="766" type="curve"/>
      <point x="744" y="770" type="line"/>
      <point x="971" y="811"/>
      <point x="1084" y="954"/>
      <point x="1092" y="1087" type="curve" smooth="yes"/>
      <point x="1108" y="1329"/>
      <point x="932" y="1438"/>
      <point x="615" y="1438" type="curve" smooth="yes"/>
    </contour>
    <contour>
      <point x="830" y="711"/>
      <point x="992" y="631"/>
      <point x="979" y="389" type="curve" smooth="yes"/>
      <point x="969" y="184"/>
      <point x="822" y="80"/>
      <point x="611" y="80" type="curve" smooth="yes"/>
      <point x="584" y="80"/>
      <point x="457" y="78"/>
      <point x="394" y="84" type="curve"/>
      <point x="400" y="119"/>
      <point x="404" y="170"/>
      <point x="408" y="244" type="curve" smooth="yes"/>
      <point x="433" y="705" type="line"/>
      <point x="498" y="709"/>
      <point x="562" y="711"/>
      <point x="644" y="711" type="curve" smooth="yes"/>
    </contour>
    <contour>
      <point x="756" y="1364"/>
      <point x="920" y="1319"/>
      <point x="912" y="1098" type="curve" smooth="yes"/>
      <point x="906" y="946"/>
      <point x="820" y="799"/>
      <point x="586" y="788" type="curve" smooth="yes"/>
      <point x="541" y="786"/>
      <point x="488" y="784"/>
      <point x="437" y="784" type="curve"/>
      <point x="457" y="1165" type="line" smooth="yes"/>
      <point x="465" y="1315"/>
      <point x="488" y="1364"/>
      <point x="621" y="1364" type="curve" smooth="yes"/>
    </contour>
  </outline>
</glyph>
<glyph name="C" format="1">
  <advance width="1405"/>
  <unicode hex="0043"/>
  <outline>
    <contour>
      <point x="366" y="1467"/>
      <point x="123" y="1079"/>
      <point x="102" y="694" type="curve"/>
      <point x="82" y="287"/>
      <point x="338" y="-33"/>
      <point x="749" y="-33" type="curve" smooth="yes"/>
      <point x="915" y="-33"/>
      <point x="1155" y="23"/>
      <point x="1343" y="260" type="curve"/>
      <point x="1292" y="303" type="line"/>
      <point x="1173" y="152"/>
      <point x="985" y="74"/>
      <point x="809" y="74" type="curve" smooth="yes"/>
      <point x="506" y="74"/>
      <point x="274" y="338"/>
      <point x="295" y="725" type="curve"/>
      <point x="315" y="1126"/>
      <point x="561" y="1383"/>
      <point x="852" y="1383" type="curve" smooth="yes"/>
      <point x="1089" y="1383"/>
      <point x="1243" y="1236"/>
      <point x="1257" y="980" type="curve"/>
      <point x="1331" y="980" type="line"/>
      <point x="1356" y="1455" type="line"/>
      <point x="1245" y="1455" type="line"/>
      <point x="1250" y="1344" type="line"/>
      <point x="1248" y="1344" type="line"/>
      <point x="1127" y="1426"/>
      <point x="998" y="1467"/>
      <point x="844" y="1467" type="curve" smooth="yes"/>
    </contour>
    <contour>
      <point x="879" y="1438" type="move" name="top"/>
    </contour>
    <contour>
      <point x="797" y="0" type="move" name="bottom"/>
    </contour>
  </outline>
</glyph>
<glyph name="M" format="1">
  <advance width="1878"/>
  <unicode hex="004D"/>
  <outline>
    <contour>
      <point x="1486" y="1434" type="line"/>
      <point x="1357" y="1142"/>
      <point x="1185" y="809"/>
      <point x="1054" y="514" type="curve" smooth="yes"/>
      <point x="1022" y="440"/>
      <point x="970" y="324"/>
      <point x="936" y="250" type="curve"/>
      <point x="931" y="250" type="line"/>
      <point x="778" y="647"/>
      <point x="653" y="1006"/>
      <point x="487" y="1434" type="curve"/>
      <point x="182" y="1434" type="line"/>
      <point x="178" y="1346" type="line"/>
      <point x="325" y="1352" type="line"/>
      <point x="215" y="256" type="line"/>
      <point x="204" y="156"/>
      <point x="192" y="70"/>
      <point x="65" y="68" type="curve"/>
      <point x="61" y="0" type="line"/>
      <point x="450" y="0" type="line"/>
      <point x="456" y="90" type="line"/>
      <point x="302" y="82" type="line"/>
      <point x="310" y="133"/>
      <point x="315" y="195"/>
      <point x="321" y="256" type="curve" smooth="yes"/>
      <point x="374" y="809" type="line" smooth="yes"/>
      <point x="385" y="928"/>
      <point x="396" y="1061"/>
      <point x="401" y="1214" type="curve"/>
      <point x="405" y="1214" type="line"/>
      <point x="442" y="1087"/>
      <point x="456" y="1053"/>
      <point x="495" y="946" type="curve" smooth="yes"/>
      <point x="614" y="625"/>
      <point x="723" y="301"/>
      <point x="850" y="-20" type="curve"/>
      <point x="909" y="-20" type="line"/>
      <point x="1396" y="1031" type="line"/>
      <point x="1468" y="1188" type="line"/>
      <point x="1472" y="1188" type="line"/>
      <point x="1470" y="1128"/>
      <point x="1470" y="1071"/>
      <point x="1470" y="1012" type="curve" smooth="yes"/>
      <point x="1470" y="311" type="line" smooth="yes"/>
      <point x="1470" y="162"/>
      <point x="1456" y="78"/>
      <point x="1343" y="68" type="curve"/>
      <point x="1327" y="68" type="line"/>
      <point x="1323" y="0" type="line"/>
      <point x="1773" y="0" type="line"/>
      <point x="1779" y="90" type="line"/>
      <point x="1628" y="82" type="line"/>
      <point x="1630" y="119"/>
      <point x="1632" y="162"/>
      <point x="1632" y="211" type="curve" smooth="yes"/>
      <point x="1626" y="1143" type="line"/>
      <point x="1624" y="1311"/>
      <point x="1675" y="1368"/>
      <point x="1777" y="1366" type="curve"/>
      <point x="1781" y="1434" type="line"/>
    </contour>
  </outline>
</glyph>
<glyph name="Q" format="1">
  <advance width="1614"/>
  <unicode hex="0051"/>
  <outline>
    <contour>
      <point x="391" y="1467"/>
      <point x="100" y="1092"/>
      <point x="100" y="670" type="curve" smooth="yes"/>
      <point x="100" y="338"/>
      <point x="301" y="-33"/>
      <point x="782" y="-33" type="curve" smooth="yes"/>
      <point x="944" y="-33"/>
      <point x="994" y="-148"/>
      <point x="1198" y="-332" type="curve" smooth="yes"/>
      <point x="1325" y="-446"/>
      <point x="1384" y="-446"/>
      <point x="1532" y="-446" type="curve" smooth="yes"/>
      <point x="1597" y="-446" type="line"/>
      <point x="1597" y="-379" type="line"/>
      <point x="1585" y="-379" type="line" smooth="yes"/>
      <point x="1517" y="-379"/>
      <point x="1460" y="-322"/>
      <point x="1270" y="-145" type="curve" smooth="yes"/>
      <point x="1139" y="-24"/>
      <point x="1063" y="-17"/>
      <point x="948" y="-17" type="curve"/>
      <point x="948" y="-15" type="line"/>
      <point x="1338" y="69"/>
      <point x="1528" y="449"/>
      <point x="1528" y="756" type="curve" smooth="yes"/>
      <point x="1528" y="1089"/>
      <point x="1327" y="1467"/>
      <point x="846" y="1467" type="curve" smooth="yes"/>
    </contour>
    <contour>
      <point x="1161" y="1385"/>
      <point x="1332" y="1044"/>
      <point x="1332" y="723" type="curve" smooth="yes"/>
      <point x="1332" y="410"/>
      <point x="1145" y="51"/>
      <point x="792" y="51" type="curve" smooth="yes"/>
      <point x="426" y="51"/>
      <point x="292" y="436"/>
      <point x="296" y="715" type="curve" smooth="yes"/>
      <point x="300" y="1030"/>
      <point x="493" y="1385"/>
      <point x="835" y="1385" type="curve" smooth="yes"/>
    </contour>
  </outline>
</glyph>
<glyph name="R" format="1">
  <advance width="1280"/>
  <unicode hex="0052"/>
  <outline>
    <contour>
      <point x="463" y="1439"/>
      <point x="314" y="1435"/>
      <point x="160" y="1434" type="curve"/>
      <point x="154" y="1343" type="line"/>
      <point x="304" y="1352" type="line"/>
      <point x="297" y="1311"/>
      <point x="291" y="1260"/>
      <point x="289" y="1204" type="curve"/>
      <point x="242" y="319" type="line"/>
      <point x="236" y="174"/>
      <point x="242" y="74"/>
      <point x="89" y="68" type="curve"/>
      <point x="84" y="0" type="line"/>
      <point x="537" y="0" type="line"/>
      <point x="541" y="90" type="line"/>
      <point x="394" y="82" type="line"/>
      <point x="400" y="117"/>
      <point x="404" y="170"/>
      <point x="408" y="244" type="curve" smooth="yes"/>
      <point x="429" y="642" type="line"/>
      <point x="441" y="641"/>
      <point x="490" y="639"/>
      <point x="508" y="639" type="curve" smooth="yes"/>
      <point x="532" y="639"/>
      <point x="555" y="639"/>
      <point x="577" y="640" type="curve"/>
      <point x="631" y="588"/>
      <point x="671" y="506"/>
      <point x="704" y="447" type="curve" smooth="yes"/>
      <point x="830" y="227" type="line"/>
      <point x="883" y="137"/>
      <point x="937" y="51"/>
      <point x="1000" y="0" type="curve"/>
      <point x="1250" y="0" type="line"/>
      <point x="1254" y="68" type="line"/>
      <point x="1125" y="68"/>
      <point x="1078" y="152"/>
      <point x="1014" y="262" type="curve" smooth="yes"/>
      <point x="887" y="481" type="line" smooth="yes"/>
      <point x="841" y="560"/>
      <point x="803" y="619"/>
      <point x="752" y="658" type="curve"/>
      <point x="752" y="658"/>
      <point x="752" y="660"/>
      <point x="752" y="660" type="curve"/>
      <point x="1064" y="723"/>
      <point x="1141" y="908"/>
      <point x="1149" y="1063" type="curve"/>
      <point x="1162" y="1280"/>
      <point x="1016" y="1432"/>
      <point x="621" y="1437" type="curve" smooth="yes"/>
    </contour>
    <contour>
      <point x="861" y="1359"/>
      <point x="969" y="1253"/>
      <point x="959" y="1047" type="curve" smooth="yes"/>
      <point x="947" y="811"/>
      <point x="785" y="725"/>
      <point x="560" y="717" type="curve" smooth="yes"/>
      <point x="511" y="715"/>
      <point x="475" y="716"/>
      <point x="433" y="720" type="curve"/>
      <point x="455" y="1124" type="line"/>
      <point x="461" y="1270"/>
      <point x="465" y="1359"/>
      <point x="609" y="1359" type="curve" smooth="yes"/>
    </contour>
    <contour>
      <point x="662" y="1438" type="move" name="top"/>
    </contour>
    <contour>
      <point x="638" y="0" type="move" name="bottom"/>
    </contour>
  </outline>
</glyph>
<glyph name="W" format="1">
  <advance width="2036"/>
  <unicode hex="0057"/>
  <outline>
    <contour>
      <point x="1054" y="1438" type="line"/>
      <point x="1013" y="1315"/>
      <point x="890" y="987"/>
      <point x="743" y="592" type="curve" smooth="yes"/>
      <point x="722" y="537"/>
      <point x="671" y="404"/>
      <point x="638" y="312" type="curve"/>
      <point x="634" y="312" type="line"/>
      <point x="599" y="441"/>
      <point x="567" y="543"/>
      <point x="534" y="666" type="curve" smooth="yes"/>
      <point x="491" y="831"/>
      <point x="443" y="963"/>
      <point x="404" y="1143" type="curve" smooth="yes"/>
      <point x="367" y="1307"/>
      <point x="389" y="1358"/>
      <point x="548" y="1366" type="curve"/>
      <point x="552" y="1434" type="line"/>
      <point x="61" y="1434" type="line"/>
      <point x="57" y="1343" type="line"/>
      <point x="173" y="1348" type="line"/>
      <point x="180" y="1286"/>
      <point x="203" y="1213"/>
      <point x="244" y="1069" type="curve" smooth="yes"/>
      <point x="552" y="-22" type="line"/>
      <point x="606" y="-22" type="line"/>
      <point x="1027" y="1087" type="line"/>
      <point x="1034" y="1087" type="line"/>
      <point x="1054" y="1006"/>
      <point x="1075" y="926"/>
      <point x="1116" y="784" type="curve" smooth="yes"/>
      <point x="1349" y="-22" type="line"/>
      <point x="1402" y="-22" type="line"/>
      <point x="1550" y="332"/>
      <point x="1683" y="692"/>
      <point x="1828" y="1063" type="curve" smooth="yes"/>
      <point x="1927" y="1315"/>
      <point x="1957" y="1350"/>
      <point x="2097" y="1366" type="curve"/>
      <point x="2101" y="1434" type="line"/>
      <point x="1685" y="1434" type="line"/>
      <point x="1681" y="1343" type="line"/>
      <point x="1845" y="1350" type="line"/>
      <point x="1817" y="1303"/>
      <point x="1791" y="1245"/>
      <point x="1775" y="1200" type="curve" smooth="yes"/>
      <point x="1726" y="1073"/>
      <point x="1684" y="970"/>
      <point x="1533" y="561" type="curve" smooth="yes"/>
      <point x="1497" y="465"/>
      <point x="1461" y="371"/>
      <point x="1430" y="293" type="curve"/>
      <point x="1426" y="293" type="line"/>
      <point x="1393" y="422"/>
      <point x="1357" y="543"/>
      <point x="1324" y="666" type="curve" smooth="yes"/>
      <point x="1281" y="831"/>
      <point x="1154" y="1257"/>
      <point x="1111" y="1438" type="curve"/>
    </contour>
    <contour>
      <point x="1112" y="1443" type="move" name="top"/>
    </contour>
  </outline>
</glyph>
<glyph name="e" format="1">
  <advance width="977"/>
  <unicode hex="0065"/>
  <outline>
    <contour>
      <point x="242" y="1047"/>
      <point x="80" y="737"/>
      <point x="80" y="420" type="curve" smooth="yes"/>
      <point x="80" y="154"/>
      <point x="199" y="-23"/>
      <point x="459" y="-23" type="curve" smooth="yes"/>
      <point x="645" y="-23"/>
      <point x="783" y="74"/>
      <point x="897" y="289" type="curve"/>
      <point x="830" y="327" type="line"/>
      <point x="740" y="155"/>
      <point x="613" y="80"/>
      <point x="494" y="80" type="curve" smooth="yes"/>
      <point x="333" y="80"/>
      <point x="261" y="211"/>
      <point x="260" y="465" type="curve"/>
      <point x="515" y="493"/>
      <point x="864" y="585"/>
      <point x="864" y="811" type="curve" smooth="yes"/>
      <point x="864" y="986"/>
      <point x="723" y="1047"/>
      <point x="578" y="1047" type="curve" smooth="yes"/>
    </contour>
    <contour>
      <point x="647" y="977"/>
      <point x="695" y="908"/>
      <point x="695" y="821" type="curve" smooth="yes"/>
      <point x="695" y="663"/>
      <point x="477" y="568"/>
      <point x="262" y="539" type="curve"/>
      <point x="277" y="759"/>
      <point x="361" y="977"/>
      <point x="549" y="977" type="curve" smooth="yes"/>
    </contour>
    <contour>
      <point x="628" y="10" type="move" name="ogonek"/>
    </contour>
    <contour>
      <point x="517" y="0" type="move" name="bottom"/>
    </contour>
    <contour>
      <point x="568" y="1048" type="move" name="top"/>
    </contour>
  </outline>
</glyph>
<glyph name="f" format="1">
  <advance width="666"/>
  <unicode hex="0066"/>
  <outline>
    <contour>
      <point x="375" y="1551"/>
      <point x="282" y="1320"/>
      <point x="240" y="1024" type="curve"/>
      <point x="60" y="1024" type="line"/>
      <point x="50" y="936" type="line"/>
      <point x="229" y="938" type="line"/>
      <point x="214" y="798"/>
      <point x="205" y="647"/>
      <point x="193" y="502" type="curve"/>
      <point x="144" y="-41"/>
      <point x="160" y="-475"/>
      <point x="-32" y="-475" type="curve" smooth="yes"/>
      <point x="-57" y="-475"/>
      <point x="-78" y="-470"/>
      <point x="-93" y="-459" type="curve"/>
      <point x="-93" y="-404"/>
      <point x="-123" y="-366"/>
      <point x="-173" y="-365" type="curve" smooth="yes"/>
      <point x="-234" y="-363"/>
      <point x="-256" y="-418"/>
      <point x="-256" y="-449" type="curve" smooth="yes"/>
      <point x="-256" y="-518"/>
      <point x="-201" y="-555"/>
      <point x="-96" y="-555" type="curve" smooth="yes"/>
      <point x="316" y="-555"/>
      <point x="316" y="-12"/>
      <point x="361" y="483" type="curve" smooth="yes"/>
      <point x="375" y="641"/>
      <point x="381" y="799"/>
      <point x="390" y="940" type="curve"/>
      <point x="680" y="944" type="line"/>
      <point x="686" y="1024" type="line"/>
      <point x="396" y="1024" type="line"/>
      <point x="415" y="1280"/>
      <point x="452" y="1467"/>
      <point x="582" y="1478" type="curve" smooth="yes"/>
      <point x="605" y="1480"/>
      <point x="633" y="1476"/>
      <point x="642" y="1470" type="curve"/>
      <point x="639" y="1411"/>
      <point x="671" y="1369"/>
      <point x="723" y="1368" type="curve" smooth="yes"/>
      <point x="784" y="1366"/>
      <point x="805" y="1419"/>
      <point x="805" y="1450" type="curve" smooth="yes"/>
      <point x="805" y="1519"/>
      <point x="747" y="1558"/>
      <point x="647" y="1556" type="curve" smooth="yes"/>
    </contour>
  </outline>
</glyph>
<glyph name="k" format="1">
  <advance width="1065"/>
  <unicode hex="006B"/>
  <outline>
    <contour>
      <point x="365" y="1546" type="line"/>
      <point x="332" y="1518"/>
      <point x="289" y="1491"/>
      <point x="109" y="1491" type="curve"/>
      <point x="100" y="1409" type="line"/>
      <point x="244" y="1417" type="line"/>
      <point x="238" y="1382"/>
      <point x="235" y="1378"/>
      <point x="225" y="1309" type="curve" smooth="yes"/>
      <point x="177" y="987"/>
      <point x="123" y="242"/>
      <point x="123" y="53" type="curve" smooth="yes"/>
      <point x="123" y="31"/>
      <point x="123" y="18"/>
      <point x="125" y="0" type="curve"/>
      <point x="293" y="0" type="line"/>
      <point x="291" y="35"/>
      <point x="289" y="68"/>
      <point x="289" y="109" type="curve" smooth="yes"/>
      <point x="289" y="209"/>
      <point x="307" y="326"/>
      <point x="337" y="439" type="curve"/>
      <point x="391" y="440" type="line"/>
      <point x="468" y="438"/>
      <point x="499" y="380"/>
      <point x="551" y="246" type="curve" smooth="yes"/>
      <point x="623" y="57"/>
      <point x="682" y="-23"/>
      <point x="787" y="-23" type="curve" smooth="yes"/>
      <point x="914" y="-23"/>
      <point x="983" y="93"/>
      <point x="1008" y="208" type="curve"/>
      <point x="950" y="220" type="line"/>
      <point x="926" y="118"/>
      <point x="893" y="89"/>
      <point x="848" y="93" type="curve" smooth="yes"/>
      <point x="791" y="99"/>
      <point x="747" y="211"/>
      <point x="705" y="307" type="curve" smooth="yes"/>
      <point x="659" y="410"/>
      <point x="618" y="449"/>
      <point x="524" y="451" type="curve"/>
      <point x="524" y="453" type="line"/>
      <point x="793" y="501"/>
      <point x="920" y="679"/>
      <point x="920" y="826" type="curve" smooth="yes"/>
      <point x="920" y="936"/>
      <point x="862" y="1047"/>
      <point x="721" y="1047" type="curve" smooth="yes"/>
      <point x="576" y="1047"/>
      <point x="443" y="952"/>
      <point x="320" y="590" type="curve"/>
      <point x="313" y="590" type="line"/>
      <point x="328" y="795"/>
      <point x="348" y="1008"/>
      <point x="373" y="1198" type="curve" smooth="yes"/>
      <point x="385" y="1290"/>
      <point x="404" y="1444"/>
      <point x="424" y="1546" type="curve"/>
    </contour>
    <contour>
      <point x="742" y="957"/>
      <point x="754" y="873"/>
      <point x="754" y="822" type="curve" smooth="yes"/>
      <point x="754" y="613"/>
      <point x="615" y="498"/>
      <point x="356" y="498" type="curve" smooth="yes"/>
      <point x="354" y="498" type="line"/>
      <point x="427" y="734"/>
      <point x="547" y="943"/>
      <point x="658" y="951" type="curve" smooth="yes"/>
    </contour>
    <contour>
      <point x="544" y="0" type="move" name="bottom"/>
    </contour>
  </outline>
</glyph>
<glyph name="r" format="1">
  <advance width="932"/>
  <unicode hex="0072"/>
  <outline>
    <contour>
      <point x="659" y="1047"/>
      <point x="525" y="954"/>
      <point x="406" y="600" type="curve"/>
      <point x="400" y="600" type="line"/>
      <point x="449" y="852"/>
      <point x="459" y="1047"/>
      <point x="280" y="1047" type="curve" smooth="yes"/>
      <point x="117" y="1047"/>
      <point x="33" y="854"/>
      <point x="14" y="758" type="curve"/>
      <point x="71" y="746" type="line"/>
      <point x="112" y="891"/>
      <point x="176" y="944"/>
      <point x="221" y="944" type="curve" smooth="yes"/>
      <point x="278" y="944"/>
      <point x="278" y="881"/>
      <point x="276" y="825" type="curve" smooth="yes"/>
      <point x="274" y="782"/>
      <point x="266" y="739"/>
      <point x="237" y="473" type="curve" smooth="yes"/>
      <point x="209" y="215"/>
      <point x="205" y="123"/>
      <point x="205" y="53" type="curve" smooth="yes"/>
      <point x="205" y="31"/>
      <point x="205" y="18"/>
      <point x="207" y="0" type="curve"/>
      <point x="377" y="0" type="line"/>
      <point x="375" y="35"/>
      <point x="373" y="47"/>
      <point x="373" y="88" type="curve" smooth="yes"/>
      <point x="373" y="420"/>
      <point x="557" y="958"/>
      <point x="747" y="915" type="curve"/>
      <point x="754" y="861"/>
      <point x="792" y="830"/>
      <point x="842" y="830" type="curve" smooth="yes"/>
      <point x="900" y="830"/>
      <point x="936" y="879"/>
      <point x="936" y="928" type="curve" smooth="yes"/>
      <point x="936" y="1001"/>
      <point x="874" y="1047"/>
      <point x="792" y="1047" type="curve" smooth="yes"/>
    </contour>
    <contour>
      <point x="521" y="1048" type="move" name="top"/>
    </contour>
    <contour>
      <point x="355" y="0" type="move" name="bottom"/>
    </contour>
  </outline>
</glyph>
<glyph name="t" format="1">
  <advance width="745"/>
  <unicode hex="0074"/>
  <outline>
    <contour>
      <point x="366" y="1313" type="line"/>
      <point x="313" y="1128"/>
      <point x="219" y="1024"/>
      <point x="51" y="1024" type="curve"/>
      <point x="45" y="938" type="line"/>
      <point x="227" y="940" type="line"/>
      <point x="192" y="645"/>
      <point x="174" y="373"/>
      <point x="174" y="219" type="curve" smooth="yes"/>
      <point x="174" y="90"/>
      <point x="227" y="-23"/>
      <point x="387" y="-23" type="curve" smooth="yes"/>
      <point x="518" y="-23"/>
      <point x="602" y="51"/>
      <point x="682" y="190" type="curve"/>
      <point x="629" y="225" type="line"/>
      <point x="551" y="94"/>
      <point x="475" y="82"/>
      <point x="436" y="82" type="curve" smooth="yes"/>
      <point x="346" y="82"/>
      <point x="340" y="180"/>
      <point x="340" y="260" type="curve" smooth="yes"/>
      <point x="340" y="442"/>
      <point x="375" y="713"/>
      <point x="399" y="942" type="curve"/>
      <point x="727" y="947" type="line"/>
      <point x="733" y="1024" type="line"/>
      <point x="407" y="1024" type="line"/>
      <point x="419" y="1120"/>
      <point x="434" y="1233"/>
      <point x="444" y="1313" type="curve"/>
    </contour>
    <contour>
      <point x="400" y="524" type="move" name="center"/>
    </contour>
    <contour>
      <point x="407" y="0" type="move" name="bottom"/>
    </contour>
  </outline>
</glyph>
<glyph name="u" format="1">
  <advance width="1214"/>
  <unicode hex="0075"/>
  <outline>
    <contour>
      <point x="108" y="1047"/>
      <point x="31" y="854"/>
      <point x="12" y="758" type="curve"/>
      <point x="69" y="746" type="line"/>
      <point x="110" y="891"/>
      <point x="168" y="944"/>
      <point x="213" y="944" type="curve" smooth="yes"/>
      <point x="262" y="944"/>
      <point x="268" y="899"/>
      <point x="268" y="848" type="curve" smooth="yes"/>
      <point x="268" y="731"/>
      <point x="203" y="471"/>
      <point x="203" y="244" type="curve" smooth="yes"/>
      <point x="203" y="102"/>
      <point x="263" y="-23"/>
      <point x="427" y="-23" type="curve" smooth="yes"/>
      <point x="560" y="-23"/>
      <point x="674" y="63"/>
      <point x="813" y="436" type="curve"/>
      <point x="819" y="436" type="line"/>
      <point x="799" y="334"/>
      <point x="782" y="239"/>
      <point x="782" y="162" type="curve" smooth="yes"/>
      <point x="782" y="51"/>
      <point x="829" y="-23"/>
      <point x="940" y="-23" type="curve" smooth="yes"/>
      <point x="1104" y="-23"/>
      <point x="1188" y="170"/>
      <point x="1206" y="266" type="curve"/>
      <point x="1149" y="278" type="line"/>
      <point x="1108" y="133"/>
      <point x="1044" y="82"/>
      <point x="999" y="82" type="curve" smooth="yes"/>
      <point x="956" y="82"/>
      <point x="944" y="123"/>
      <point x="944" y="172" type="curve" smooth="yes"/>
      <point x="944" y="233"/>
      <point x="946" y="233"/>
      <point x="983" y="553" type="curve" smooth="yes"/>
      <point x="1014" y="811"/>
      <point x="1024" y="901"/>
      <point x="1024" y="971" type="curve" smooth="yes"/>
      <point x="1024" y="993"/>
      <point x="1024" y="1006"/>
      <point x="1022" y="1024" type="curve"/>
      <point x="850" y="1024" type="line"/>
      <point x="852" y="989"/>
      <point x="854" y="956"/>
      <point x="854" y="915" type="curve" smooth="yes"/>
      <point x="854" y="569"/>
      <point x="655" y="74"/>
      <point x="467" y="74" type="curve" smooth="yes"/>
      <point x="387" y="74"/>
      <point x="371" y="156"/>
      <point x="371" y="203" type="curve" smooth="yes"/>
      <point x="371" y="375"/>
      <point x="438" y="692"/>
      <point x="438" y="848" type="curve" smooth="yes"/>
      <point x="438" y="975"/>
      <point x="381" y="1047"/>
      <point x="272" y="1047" type="curve" smooth="yes"/>
    </contour>
    <contour>
      <point x="1066" y="10" type="move" name="ogonek"/>
    </contour>
    <contour>
      <point x="634" y="1048" type="move" name="top"/>
    </contour>
  </outline>
</glyph>
<glyph name="z" format="1">
  <advance width="965"/>
  <unicode hex="007A"/>
  <outline>
    <contour>
      <point x="752" y="990"/>
      <point x="672" y="982"/>
      <point x="637" y="982" type="curve" smooth="yes"/>
      <point x="514" y="982"/>
      <point x="448" y="1047"/>
      <point x="325" y="1047" type="curve" smooth="yes"/>
      <point x="207" y="1047"/>
      <point x="104" y="958"/>
      <point x="104" y="827" type="curve" smooth="yes"/>
      <point x="104" y="780"/>
      <point x="116" y="733"/>
      <point x="131" y="692" type="curve"/>
      <point x="186" y="710" type="line"/>
      <point x="176" y="739"/>
      <point x="172" y="766"/>
      <point x="172" y="788" type="curve" smooth="yes"/>
      <point x="172" y="885"/>
      <point x="237" y="908"/>
      <point x="284" y="908" type="curve" smooth="yes"/>
      <point x="375" y="908"/>
      <point x="439" y="857"/>
      <point x="526" y="849" type="curve" smooth="yes"/>
      <point x="580" y="844"/>
      <point x="647" y="856"/>
      <point x="719" y="932" type="curve"/>
      <point x="723" y="932" type="line"/>
      <point x="627" y="816"/>
      <point x="548" y="720"/>
      <point x="436" y="573" type="curve" smooth="yes"/>
      <point x="305" y="401"/>
      <point x="139" y="179"/>
      <point x="37" y="28" type="curve"/>
      <point x="102" y="-23" type="line"/>
      <point x="170" y="40"/>
      <point x="229" y="51"/>
      <point x="289" y="51" type="curve" smooth="yes"/>
      <point x="409" y="51"/>
      <point x="529" y="-23"/>
      <point x="652" y="-23" type="curve" smooth="yes"/>
      <point x="771" y="-23"/>
      <point x="866" y="65"/>
      <point x="866" y="196" type="curve" smooth="yes"/>
      <point x="866" y="243"/>
      <point x="856" y="290"/>
      <point x="841" y="331" type="curve"/>
      <point x="786" y="313" type="line"/>
      <point x="796" y="284"/>
      <point x="801" y="257"/>
      <point x="801" y="235" type="curve" smooth="yes"/>
      <point x="801" y="139"/>
      <point x="735" y="124"/>
      <point x="688" y="124" type="curve" smooth="yes"/>
      <point x="598" y="124"/>
      <point x="505" y="193"/>
      <point x="405" y="193" type="curve" smooth="yes"/>
      <point x="305" y="193"/>
      <point x="234" y="159"/>
      <point x="171" y="87" type="curve"/>
      <point x="167" y="87" type="line"/>
      <point x="266" y="220"/>
      <point x="351" y="325"/>
      <point x="471" y="481" type="curve" smooth="yes"/>
      <point x="641" y="702"/>
      <point x="821" y="913"/>
      <point x="882" y="991" type="curve"/>
      <point x="821" y="1048" type="line"/>
    </contour>
    <contour>
      <point x="534" y="1048" type="move" name="top"/>
    </contour>
  </outline>
</glyph>
<glyph name="yen" format="1">
  <advance width="1432"/>
  <unicode hex="00A5"/>
  <outline>
    <contour>
      <point x="1013" y="1434" type="line"/>
      <point x="1009" y="1343" type="line"/>
      <point x="1171" y="1350" type="line"/>
      <point x="1130" y="1307"/>
      <point x="1087" y="1233"/>
      <point x="1064" y="1194" type="curve" smooth="yes"/>
      <point x="966" y="1028"/>
      <point x="880" y="885"/>
      <point x="774" y="698" type="curve"/>
      <point x="770" y="698" type="line"/>
      <point x="661" y="862"/>
      <point x="596" y="980"/>
      <point x="503" y="1143" type="curve" smooth="yes"/>
      <point x="429" y="1273"/>
      <point x="436" y="1366"/>
      <point x="624" y="1366" type="curve"/>
      <point x="628" y="1434" type="line"/>
      <point x="108" y="1434" type="line"/>
      <point x="104" y="1343" type="line"/>
      <point x="231" y="1348" type="line"/>
      <point x="237" y="1296"/>
      <point x="266" y="1226"/>
      <point x="329" y="1116" type="curve" smooth="yes"/>
      <point x="598" y="648" type="line"/>
      <point x="387" y="649" type="line"/>
      <point x="380" y="553" type="line"/>
      <point x="652" y="554" type="line"/>
      <point x="653" y="553" type="line"/>
      <point x="646" y="426" type="line"/>
      <point x="374" y="428" type="line"/>
      <point x="368" y="332" type="line"/>
      <point x="641" y="333" type="line"/>
      <point x="641" y="319" type="line"/>
      <point x="634" y="180"/>
      <point x="643" y="74"/>
      <point x="489" y="68" type="curve"/>
      <point x="485" y="0" type="line"/>
      <point x="958" y="0" type="line"/>
      <point x="962" y="90" type="line"/>
      <point x="792" y="82" type="line"/>
      <point x="798" y="117"/>
      <point x="804" y="170"/>
      <point x="806" y="244" type="curve" smooth="yes"/>
      <point x="805" y="244"/>
      <point x="807" y="283"/>
      <point x="810" y="334" type="curve"/>
      <point x="1077" y="336" type="line"/>
      <point x="1081" y="424" type="line"/>
      <point x="816" y="425" type="line"/>
      <point x="824" y="555" type="line"/>
      <point x="1087" y="557" type="line"/>
      <point x="1091" y="645" type="line"/>
      <point x="846" y="646" type="line"/>
      <point x="928" y="787"/>
      <point x="1014" y="938"/>
      <point x="1112" y="1102" type="curve" smooth="yes"/>
      <point x="1216" y="1276"/>
      <point x="1292" y="1358"/>
      <point x="1427" y="1366" type="curve"/>
      <point x="1431" y="1434" type="line"/>
    </contour>
  </outline>
</glyph>
<glyph name="section" format="1">
  <advance width="1073"/>
  <unicode hex="00A7"/>
  <outline>
    <contour>
      <point x="320" y="1556"/>
      <point x="210" y="1333"/>
      <point x="201" y="1202" type="curve" smooth="yes"/>
      <point x="194" y="1106"/>
      <point x="223" y="1033"/>
      <point x="271" y="972" type="curve"/>
      <point x="152" y="875"/>
      <point x="81" y="740"/>
      <point x="75" y="626" type="curve"/>
      <point x="57" y="389"/>
      <point x="269" y="271"/>
      <point x="453" y="152" type="curve" smooth="yes"/>
      <point x="632" y="36"/>
      <point x="741" y="-41"/>
      <point x="717" y="-195" type="curve" smooth="yes"/>
      <point x="703" y="-285"/>
      <point x="638" y="-388"/>
      <point x="449" y="-388" type="curve" smooth="yes"/>
      <point x="345" y="-388"/>
      <point x="240" y="-327"/>
      <point x="242" y="-261" type="curve"/>
      <point x="257" y="-243"/>
      <point x="267" y="-218"/>
      <point x="267" y="-191" type="curve" smooth="yes"/>
      <point x="267" y="-151"/>
      <point x="244" y="-107"/>
      <point x="185" y="-107" type="curve" smooth="yes"/>
      <point x="124" y="-107"/>
      <point x="93" y="-159"/>
      <point x="91" y="-212" type="curve" smooth="yes"/>
      <point x="87" y="-337"/>
      <point x="230" y="-466"/>
      <point x="449" y="-466" type="curve" smooth="yes"/>
      <point x="740" y="-466"/>
      <point x="851" y="-250"/>
      <point x="859" y="-119" type="curve" smooth="yes"/>
      <point x="866" y="-19"/>
      <point x="835" y="57"/>
      <point x="783" y="119" type="curve"/>
      <point x="907" y="214"/>
      <point x="981" y="348"/>
      <point x="988" y="465" type="curve" smooth="yes"/>
      <point x="1015" y="897"/>
      <point x="318" y="915"/>
      <point x="343" y="1265" type="curve" smooth="yes"/>
      <point x="349" y="1355"/>
      <point x="423" y="1478"/>
      <point x="611" y="1478" type="curve" smooth="yes"/>
      <point x="716" y="1478"/>
      <point x="820" y="1417"/>
      <point x="818" y="1351" type="curve"/>
      <point x="804" y="1333"/>
      <point x="793" y="1308"/>
      <point x="793" y="1282" type="curve" smooth="yes"/>
      <point x="793" y="1241"/>
      <point x="816" y="1198"/>
      <point x="875" y="1198" type="curve" smooth="yes"/>
      <point x="937" y="1198"/>
      <point x="967" y="1249"/>
      <point x="969" y="1302" type="curve" smooth="yes"/>
      <point x="974" y="1427"/>
      <point x="830" y="1556"/>
      <point x="611" y="1556" type="curve" smooth="yes"/>
    </contour>
    <contour>
      <point x="503" y="749"/>
      <point x="855" y="681"/>
      <point x="832" y="389" type="curve" smooth="yes"/>
      <point x="826" y="310"/>
      <point x="796" y="223"/>
      <point x="742" y="163" type="curve"/>
      <point x="554" y="338"/>
      <point x="208" y="411"/>
      <point x="232" y="702" type="curve"/>
      <point x="237" y="775"/>
      <point x="265" y="862"/>
      <point x="315" y="925" type="curve"/>
    </contour>
  </outline>
</glyph>
<glyph name="registered" format="1">
  <advance width="1794"/>
  <unicode hex="00AE"/>
  <outline>
    <contour>
      <point x="475" y="1536"/>
      <point x="119" y="1167"/>
      <point x="94" y="713" type="curve"/>
      <point x="70" y="238"/>
      <point x="373" y="-102"/>
      <point x="860" y="-102" type="curve" smooth="yes"/>
      <point x="1315" y="-102"/>
      <point x="1692" y="260"/>
      <point x="1714" y="713" type="curve"/>
      <point x="1739" y="1167"/>
      <point x="1428" y="1536"/>
      <point x="948" y="1536" type="curve" smooth="yes"/>
    </contour>
    <contour>
      <point x="1350" y="1442"/>
      <point x="1604" y="1098"/>
      <point x="1583" y="713" type="curve"/>
      <point x="1565" y="330"/>
      <point x="1282" y="-4"/>
      <point x="868" y="-4" type="curve" smooth="yes"/>
      <point x="442" y="-4"/>
      <point x="205" y="330"/>
      <point x="225" y="713" type="curve"/>
      <point x="248" y="1118"/>
      <point x="531" y="1442"/>
      <point x="938" y="1442" type="curve" smooth="yes"/>
    </contour>
    <contour>
      <point x="821" y="1231"/>
      <point x="655" y="1225"/>
      <point x="555" y="1221" type="curve"/>
      <point x="551" y="1135" type="line"/>
      <point x="653" y="1145" type="line"/>
      <point x="649" y="1118"/>
      <point x="647" y="1083"/>
      <point x="645" y="1047" type="curve" smooth="yes"/>
      <point x="617" y="512" type="line" smooth="yes"/>
      <point x="612" y="416"/>
      <point x="610" y="350"/>
      <point x="510" y="348" type="curve"/>
      <point x="506" y="279" type="line"/>
      <point x="844" y="279" type="line"/>
      <point x="844" y="360" type="line"/>
      <point x="746" y="356" type="line"/>
      <point x="750" y="381"/>
      <point x="754" y="414"/>
      <point x="756" y="461" type="curve" smooth="yes"/>
      <point x="766" y="666" type="line"/>
      <point x="789" y="662"/>
      <point x="852" y="659"/>
      <point x="879" y="660" type="curve"/>
      <point x="917" y="600"/>
      <point x="967" y="517"/>
      <point x="1020" y="434" type="curve" smooth="yes"/>
      <point x="1081" y="340"/>
      <point x="1124" y="281"/>
      <point x="1165" y="270" type="curve"/>
      <point x="1333" y="270" type="line"/>
      <point x="1337" y="340" type="line"/>
      <point x="1278" y="340"/>
      <point x="1239" y="365"/>
      <point x="1098" y="596" type="curve"/>
      <point x="1068" y="644"/>
      <point x="1042" y="668"/>
      <point x="1019" y="679" type="curve"/>
      <point x="1019" y="679"/>
      <point x="1019" y="681"/>
      <point x="1019" y="681" type="curve"/>
      <point x="1215" y="733"/>
      <point x="1275" y="866"/>
      <point x="1280" y="958" type="curve"/>
      <point x="1286" y="1100"/>
      <point x="1188" y="1223"/>
      <point x="926" y="1229" type="curve" smooth="yes"/>
    </contour>
    <contour>
      <point x="1014" y="1153"/>
      <point x="1138" y="1085"/>
      <point x="1131" y="952" type="curve" smooth="yes"/>
      <point x="1123" y="801"/>
      <point x="969" y="750"/>
      <point x="873" y="745" type="curve" smooth="yes"/>
      <point x="838" y="743"/>
      <point x="805" y="745"/>
      <point x="772" y="748" type="curve" smooth="yes"/>
      <point x="770" y="748" type="line"/>
      <point x="782" y="969" type="line" smooth="yes"/>
      <point x="787" y="1067"/>
      <point x="787" y="1132"/>
      <point x="887" y="1141" type="curve" smooth="yes"/>
    </contour>
  </outline>
</glyph>
<glyph name="macron" format="1">
  <advance width="733"/>
  <unicode hex="00AF"/>
  <outline>
    <contour>
      <point x="98" y="1436" type="line"/>
      <point x="92" y="1321" type="line"/>
      <point x="635" y="1329" type="line"/>
      <point x="641" y="1436" type="line"/>
    </contour>
    <contour>
      <point x="349" y="1048" type="move" name="_top"/>
    </contour>
  </outline>
</glyph>
<glyph name="acute" format="1">
  <advance width="492"/>
  <unicode hex="00B4"/>
  <outline>
    <contour>
      <point x="366" y="1559"/>
      <point x="307" y="1591"/>
      <point x="251" y="1497" type="curve" smooth="yes"/>
      <point x="92" y="1227" type="line"/>
      <point x="141" y="1186" type="line"/>
      <point x="352" y="1405" type="line" smooth="yes"/>
      <point x="423" y="1481"/>
      <point x="395" y="1530"/>
      <point x="378" y="1546" type="curve" smooth="yes"/>
    </contour>
    <contour>
      <point x="228" y="1048" type="move" name="_top"/>
    </contour>
  </outline>
</glyph>
<glyph name="uni00B5" format="1">
  <advance width="1212"/>
  <unicode hex="00B5"/>
  <outline>
    <contour>
      <point x="818" y="1024" type="line"/>
      <point x="775" y="216" type="line"/>
      <point x="717" y="136"/>
      <point x="623" y="82"/>
      <point x="523" y="82" type="curve" smooth="yes"/>
      <point x="345" y="82"/>
      <point x="311" y="262"/>
      <point x="324" y="495" type="curve" smooth="yes"/>
      <point x="353" y="1024" type="line"/>
      <point x="193" y="1024" type="line"/>
      <point x="119" y="-385" type="line" smooth="yes"/>
      <point x="113" y="-493"/>
      <point x="132" y="-555"/>
      <point x="208" y="-555" type="curve" smooth="yes"/>
      <point x="267" y="-555"/>
      <point x="289" y="-503"/>
      <point x="291" y="-450" type="curve" smooth="yes"/>
      <point x="298" y="-354"/>
      <point x="240" y="-137"/>
      <point x="242" y="147" type="curve"/>
      <point x="248" y="147" type="line"/>
      <point x="295" y="24"/>
      <point x="360" y="-23"/>
      <point x="473" y="-23" type="curve" smooth="yes"/>
      <point x="583" y="-23"/>
      <point x="687" y="24"/>
      <point x="779" y="118" type="curve"/>
      <point x="788" y="52"/>
      <point x="812" y="-23"/>
      <point x="912" y="-23" type="curve" smooth="yes"/>
      <point x="1006" y="-23"/>
      <point x="1088" y="42"/>
      <point x="1125" y="91" type="curve"/>
      <point x="1105" y="122" type="line"/>
      <point x="1066" y="95"/>
      <point x="1041" y="87"/>
      <point x="1016" y="87" type="curve" smooth="yes"/>
      <point x="959" y="87"/>
      <point x="926" y="136"/>
      <point x="935" y="278" type="curve" smooth="yes"/>
      <point x="973" y="1024" type="line"/>
    </contour>
  </outline>
</glyph>
<glyph name="onesuperior" format="1">
  <advance width="553"/>
  <unicode hex="00B9"/>
  <outline>
    <contour>
      <point x="354" y="1467" type="line"/>
      <point x="123" y="1301" type="line"/>
      <point x="151" y="1247" type="line"/>
      <point x="282" y="1323" type="line"/>
      <point x="287" y="1323" type="line"/>
      <point x="262" y="844" type="line" smooth="yes"/>
      <point x="258" y="762"/>
      <point x="237" y="695"/>
      <point x="153" y="695" type="curve"/>
      <point x="151" y="637" type="line"/>
      <point x="465" y="637" type="line"/>
      <point x="469" y="707" type="line"/>
      <point x="362" y="703" type="line"/>
      <point x="368" y="725"/>
      <point x="371" y="752"/>
      <point x="373" y="783" type="curve" smooth="yes"/>
      <point x="405" y="1467" type="line"/>
    </contour>
  </outline>
</glyph>
<glyph name="multiply" format="1">
  <advance width="1094"/>
  <unicode hex="00D7"/>
  <outline>
    <contour>
      <point x="552" y="724" type="line"/>
      <point x="218" y="1083" type="line"/>
      <point x="130" y="991" type="line"/>
      <point x="459" y="637" type="line"/>
      <point x="76" y="279" type="line"/>
      <point x="154" y="188" type="line"/>
      <point x="538" y="552" type="line"/>
      <point x="889" y="176" type="line"/>
      <point x="975" y="270" type="line"/>
      <point x="631" y="639" type="line"/>
      <point x="1018" y="1006" type="line"/>
      <point x="949" y="1094" type="line"/>
    </contour>
  </outline>
</glyph>
<glyph name="Thorn" format="1">
  <advance width="1182"/>
  <unicode hex="00DE"/>
  <outline>
    <contour>
      <point x="160" y="1434" type="line"/>
      <point x="156" y="1343" type="line"/>
      <point x="304" y="1352" type="line"/>
      <point x="297" y="1311"/>
      <point x="292" y="1260"/>
      <point x="289" y="1204" type="curve" smooth="yes"/>
      <point x="242" y="319" type="line"/>
      <point x="236" y="174"/>
      <point x="242" y="74"/>
      <point x="89" y="68" type="curve"/>
      <point x="84" y="0" type="line"/>
      <point x="537" y="0" type="line"/>
      <point x="541" y="90" type="line"/>
      <point x="394" y="82" type="line"/>
      <point x="401" y="117"/>
      <point x="404" y="145"/>
      <point x="407" y="219" type="curve" smooth="yes"/>
      <point x="412" y="326" type="line"/>
      <point x="445" y="326" type="line" smooth="yes"/>
      <point x="1006" y="326"/>
      <point x="1145" y="610"/>
      <point x="1145" y="803" type="curve" smooth="yes"/>
      <point x="1145" y="1040"/>
      <point x="959" y="1184"/>
      <point x="564" y="1184" type="curve" smooth="yes"/>
      <point x="530" y="1184"/>
      <point x="493" y="1183"/>
      <point x="457" y="1182" type="curve"/>
      <point x="464" y="1297"/>
      <point x="482" y="1360"/>
      <point x="609" y="1366" type="curve"/>
      <point x="613" y="1434" type="line"/>
    </contour>
    <contour>
      <point x="797" y="1104"/>
      <point x="967" y="1006"/>
      <point x="953" y="768" type="curve" smooth="yes"/>
      <point x="940" y="549"/>
      <point x="766" y="408"/>
      <point x="508" y="406" type="curve" smooth="yes"/>
      <point x="473" y="406"/>
      <point x="446" y="404"/>
      <point x="416" y="406" type="curve"/>
      <point x="453" y="1102" type="line"/>
      <point x="499" y="1104"/>
      <point x="537" y="1104"/>
      <point x="547" y="1104" type="curve" smooth="yes"/>
    </contour>
  </outline>
</glyph>
<glyph name="germandbls" format="1">
  <advance width="1331"/>
  <unicode hex="00DF"/>
  <outline>
    <contour>
      <point x="422" y="1556"/>
      <point x="301" y="1329"/>
      <point x="246" y="1024" type="curve"/>
      <point x="58" y="1024" type="line"/>
      <point x="48" y="936" type="line"/>
      <point x="232" y="939" type="line"/>
      <point x="213" y="801"/>
      <point x="203" y="651"/>
      <point x="191" y="502" type="curve" smooth="yes"/>
      <point x="146" y="-41"/>
      <point x="159" y="-475"/>
      <point x="-33" y="-475" type="curve" smooth="yes"/>
      <point x="-48" y="-475"/>
      <point x="-79" y="-470"/>
      <point x="-95" y="-459" type="curve"/>
      <point x="-95" y="-404"/>
      <point x="-123" y="-364"/>
      <point x="-173" y="-363" type="curve" smooth="yes"/>
      <point x="-234" y="-361"/>
      <point x="-258" y="-418"/>
      <point x="-258" y="-449" type="curve" smooth="yes"/>
      <point x="-258" y="-518"/>
      <point x="-203" y="-554"/>
      <point x="-98" y="-555" type="curve" smooth="yes"/>
      <point x="302" y="-559"/>
      <point x="318" y="-12"/>
      <point x="359" y="483" type="curve" smooth="yes"/>
      <point x="381" y="758"/>
      <point x="390" y="995"/>
      <point x="428" y="1169" type="curve" smooth="yes"/>
      <point x="471" y="1364"/>
      <point x="560" y="1489"/>
      <point x="758" y="1489" type="curve" smooth="yes"/>
      <point x="932" y="1489"/>
      <point x="1003" y="1370"/>
      <point x="994" y="1257" type="curve" smooth="yes"/>
      <point x="974" y="997"/>
      <point x="706" y="997"/>
      <point x="691" y="774" type="curve" smooth="yes"/>
      <point x="677" y="553"/>
      <point x="1094" y="456"/>
      <point x="1094" y="248" type="curve" smooth="yes"/>
      <point x="1094" y="125"/>
      <point x="1039" y="53"/>
      <point x="914" y="53" type="curve" smooth="yes"/>
      <point x="840" y="53"/>
      <point x="774" y="88"/>
      <point x="753" y="147" type="curve"/>
      <point x="767" y="169"/>
      <point x="771" y="190"/>
      <point x="771" y="210" type="curve" smooth="yes"/>
      <point x="771" y="254"/>
      <point x="742" y="297"/>
      <point x="688" y="297" type="curve" smooth="yes"/>
      <point x="638" y="297"/>
      <point x="599" y="256"/>
      <point x="599" y="196" type="curve" smooth="yes"/>
      <point x="599" y="55"/>
      <point x="752" y="-23"/>
      <point x="918" y="-23" type="curve" smooth="yes"/>
      <point x="1125" y="-23"/>
      <point x="1262" y="104"/>
      <point x="1262" y="276" type="curve" smooth="yes"/>
      <point x="1262" y="563"/>
      <point x="834" y="653"/>
      <point x="834" y="813" type="curve" smooth="yes"/>
      <point x="834" y="971"/>
      <point x="1114" y="1006"/>
      <point x="1147" y="1245" type="curve" smooth="yes"/>
      <point x="1166" y="1383"/>
      <point x="1071" y="1557"/>
      <point x="767" y="1556" type="curve"/>
    </contour>
  </outline>
</glyph>
<glyph name="icircumflex" format="1">
  <advance width="664"/>
  <unicode hex="00EE"/>
  <outline>
    <contour>
      <point x="108" y="1047"/>
      <point x="33" y="854"/>
      <point x="14" y="758" type="curve"/>
      <point x="71" y="746" type="line"/>
      <point x="112" y="891"/>
      <point x="176" y="944"/>
      <point x="221" y="944" type="curve" smooth="yes"/>
      <point x="268" y="944"/>
      <point x="278" y="887"/>
      <point x="278" y="852" type="curve" smooth="yes"/>
      <point x="278" y="619"/>
      <point x="198" y="407"/>
      <point x="198" y="170" type="curve" smooth="yes"/>
      <point x="198" y="43"/>
      <point x="258" y="-23"/>
      <point x="383" y="-23" type="curve" smooth="yes"/>
      <point x="536" y="-23"/>
      <point x="612" y="151"/>
      <point x="637" y="266" type="curve"/>
      <point x="579" y="278" type="line"/>
      <point x="538" y="133"/>
      <point x="475" y="80"/>
      <point x="430" y="80" type="curve" smooth="yes"/>
      <point x="385" y="80"/>
      <point x="366" y="110"/>
      <point x="366" y="166" type="curve" smooth="yes"/>
      <point x="366" y="395"/>
      <point x="444" y="670"/>
      <point x="444" y="834" type="curve" smooth="yes"/>
      <point x="444" y="961"/>
      <point x="387" y="1047"/>
      <point x="272" y="1047" type="curve" smooth="yes"/>
    </contour>
    <contour>
      <point x="346" y="1589" type="line"/>
      <point x="22" y="1268" type="line"/>
      <point x="67" y="1214" type="line"/>
      <point x="325" y="1438" type="line"/>
      <point x="330" y="1438" type="line"/>
      <point x="555" y="1206" type="line"/>
      <point x="608" y="1260" type="line"/>
      <point x="350" y="1589" type="line"/>
    </contour>
  </outline>
</glyph>
<glyph name="circumflex" format="1">
  <advance width="819"/>
  <unicode hex="02C6"/>
  <outline>
    <contour>
      <point x="436" y="1589" type="line"/>
      <point x="92" y="1268" type="line"/>
      <point x="137" y="1214" type="line"/>
      <point x="416" y="1438" type="line"/>
      <point x="420" y="1438" type="line"/>
      <point x="676" y="1206" type="line"/>
      <point x="727" y="1260" type="line"/>
      <point x="440" y="1589" type="line"/>
    </contour>
    <contour>
      <point x="391" y="1048" type="move" name="_top"/>
    </contour>
  </outline>
</glyph>
<glyph name="ogonek" format="1">
  <advance width="625"/>
  <unicode hex="02DB"/>
  <outline>
    <contour>
      <point x="319" y="41"/>
      <point x="104" y="-117"/>
      <point x="94" y="-317" type="curve" smooth="yes"/>
      <point x="88" y="-440"/>
      <point x="158" y="-526"/>
      <point x="279" y="-526" type="curve" smooth="yes"/>
      <point x="377" y="-526"/>
      <point x="473" y="-461"/>
      <point x="530" y="-397" type="curve"/>
      <point x="502" y="-362" type="line"/>
      <point x="451" y="-408"/>
      <point x="395" y="-428"/>
      <point x="346" y="-428" type="curve" smooth="yes"/>
      <point x="266" y="-428"/>
      <point x="223" y="-371"/>
      <point x="223" y="-285" type="curve" smooth="yes"/>
      <point x="223" y="-139"/>
      <point x="369" y="-6"/>
      <point x="528" y="55" type="curve"/>
      <point x="532" y="109" type="line"/>
    </contour>
    <contour>
      <point x="527" y="55" type="move" name="_ogonek"/>
    </contour>
  </outline>
</glyph>
<glyph name="tilde" format="1">
  <advance width="868"/>
  <unicode hex="02DC"/>
  <outline>
    <contour>
      <point x="233" y="1475"/>
      <point x="131" y="1403"/>
      <point x="92" y="1307" type="curve"/>
      <point x="143" y="1280" type="line"/>
      <point x="184" y="1339"/>
      <point x="246" y="1372"/>
      <point x="293" y="1372" type="curve" smooth="yes"/>
      <point x="389" y="1372"/>
      <point x="438" y="1264"/>
      <point x="565" y="1264" type="curve" smooth="yes"/>
      <point x="637" y="1264"/>
      <point x="725" y="1315"/>
      <point x="776" y="1450" type="curve"/>
      <point x="727" y="1475" type="line"/>
      <point x="682" y="1407"/>
      <point x="635" y="1368"/>
      <point x="571" y="1370" type="curve" smooth="yes"/>
      <point x="481" y="1372"/>
      <point x="438" y="1481"/>
      <point x="309" y="1477" type="curve" smooth="yes"/>
    </contour>
    <contour>
      <point x="417" y="1048" type="move" name="_top"/>
    </contour>
  </outline>
</glyph>
<glyph name="Delta" format="1">
  <advance width="1430"/>
  <unicode hex="0394"/>
  <outline>
    <contour>
      <point x="655" y="1467" type="line"/>
      <point x="20" y="0" type="line"/>
      <point x="1337" y="0" type="line"/>
      <point x="819" y="1467" type="line"/>
    </contour>
    <contour>
      <point x="708" y="1351" type="line"/>
      <point x="710" y="1351" type="line"/>
      <point x="1127" y="114" type="line"/>
      <point x="1127" y="112" type="line"/>
      <point x="187" y="118" type="line"/>
      <point x="187" y="120" type="line"/>
    </contour>
  </outline>
</glyph>
<glyph name="pi" format="1">
  <advance width="1184"/>
  <unicode hex="03C0"/>
  <outline>
    <contour>
      <point x="1024" y="1005"/>
      <point x="972" y="994"/>
      <point x="902" y="994" type="curve" smooth="yes"/>
      <point x="746" y="994"/>
      <point x="584" y="1047"/>
      <point x="373" y="1047" type="curve" smooth="yes"/>
      <point x="244" y="1047"/>
      <point x="152" y="984"/>
      <point x="91" y="914" type="curve"/>
      <point x="122" y="869" type="line"/>
      <point x="195" y="903"/>
      <point x="241" y="919"/>
      <point x="348" y="920" type="curve"/>
      <point x="337" y="702"/>
      <point x="317" y="162"/>
      <point x="188" y="115" type="curve"/>
      <point x="168" y="140"/>
      <point x="142" y="152"/>
      <point x="109" y="152" type="curve" smooth="yes"/>
      <point x="63" y="152"/>
      <point x="20" y="114"/>
      <point x="20" y="58" type="curve" smooth="yes"/>
      <point x="20" y="6"/>
      <point x="62" y="-33"/>
      <point x="120" y="-33" type="curve" smooth="yes"/>
      <point x="341" y="-33"/>
      <point x="383" y="300"/>
      <point x="402" y="512" type="curve" smooth="yes"/>
      <point x="414" y="646"/>
      <point x="419" y="804"/>
      <point x="425" y="917" type="curve"/>
      <point x="544" y="908"/>
      <point x="658" y="877"/>
      <point x="802" y="869" type="curve"/>
      <point x="761" y="180" type="line" smooth="yes"/>
      <point x="756" y="104"/>
      <point x="754" y="-33"/>
      <point x="900" y="-33" type="curve" smooth="yes"/>
      <point x="978" y="-33"/>
      <point x="1060" y="22"/>
      <point x="1098" y="69" type="curve"/>
      <point x="1074" y="102" type="line"/>
      <point x="1049" y="85"/>
      <point x="1023" y="77"/>
      <point x="1004" y="77" type="curve" smooth="yes"/>
      <point x="947" y="77"/>
      <point x="918" y="126"/>
      <point x="926" y="268" type="curve" smooth="yes"/>
      <point x="958" y="881" type="line"/>
      <point x="1042" y="907"/>
      <point x="1104" y="965"/>
      <point x="1135" y="1004" type="curve"/>
      <point x="1103" y="1047" type="line"/>
    </contour>
  </outline>
</glyph>
<glyph name="Tshe-cy" format="1">
  <advance width="1693"/>
  <unicode hex="040B"/>
  <outline>
    <contour>
      <point x="735" y="697" type="line"/>
      <point x="804" y="739"/>
      <point x="901" y="770"/>
      <point x="1050" y="770" type="curve" smooth="yes"/>
      <point x="1224" y="770"/>
      <point x="1326" y="669"/>
      <point x="1317" y="511" type="curve" smooth="yes"/>
      <point x="1305" y="295" type="line" smooth="yes"/>
      <point x="1297" y="149"/>
      <point x="1285" y="74"/>
      <point x="1151" y="68" type="curve"/>
      <point x="1147" y="0" type="line"/>
      <point x="1600" y="0" type="line"/>
      <point x="1604" y="91" type="line"/>
      <point x="1456" y="82" type="line"/>
      <point x="1463" y="123"/>
      <point x="1468" y="174"/>
      <point x="1471" y="230" type="curve" smooth="yes"/>
      <point x="1483" y="468" type="line" smooth="yes"/>
      <point x="1497" y="731"/>
      <point x="1379" y="874"/>
      <point x="1125" y="874" type="curve" smooth="yes"/>
      <point x="958" y="874"/>
      <point x="830" y="844"/>
      <point x="740" y="797" type="curve"/>
    </contour>
    <component base="T"/>
  </outline>
</glyph>
<glyph name="Dzhe-cy" format="1">
  <advance width="1553"/>
  <unicode hex="040F"/>
  <outline>
    <contour>
      <point x="703" y="0"/>
      <point x="732" y="-129"/>
      <point x="721" y="-363" type="curve"/>
      <point x="806" y="-363" type="line"/>
      <point x="827" y="86" type="line"/>
      <point x="803" y="85" type="line"/>
      <point x="568" y="0" type="line"/>
    </contour>
    <component base="Pe-cy" xOffset="1570" yOffset="1434" xScale="-1" yScale="-1"/>
  </outline>
</glyph>
<glyph name="Ze-cy" format="1">
  <advance width="1217"/>
  <unicode hex="0417"/>
  <outline>
    <contour>
      <point x="533" y="702" type="line"/>
      <point x="805" y="701"/>
      <point x="935" y="617"/>
      <point x="924" y="414" type="curve" smooth="yes"/>
      <point x="912" y="182"/>
      <point x="727" y="73"/>
      <point x="535" y="73" type="curve" smooth="yes"/>
      <point x="369" y="73"/>
      <point x="229" y="155"/>
      <point x="105" y="309" type="curve"/>
      <point x="50" y="266" type="line"/>
      <point x="176" y="64"/>
      <point x="365" y="-24"/>
      <point x="574" y="-24" type="curve" smooth="yes"/>
      <point x="835" y="-24"/>
      <point x="1106" y="116"/>
      <point x="1122" y="411" type="curve" smooth="yes"/>
      <point x="1133" y="617"/>
      <point x="979" y="768"/>
      <point x="664" y="761" type="curve"/>
    </contour>
    <contour>
      <point x="400" y="790" type="line"/>
      <point x="395" y="700" type="line"/>
      <point x="589" y="702" type="line"/>
      <point x="573" y="790" type="line"/>
    </contour>
    <contour>
      <point x="525" y="1467"/>
      <point x="429" y="1428"/>
      <point x="303" y="1342" type="curve"/>
      <point x="318" y="1452" type="line"/>
      <point x="207" y="1452" type="line"/>
      <point x="182" y="977" type="line"/>
      <point x="256" y="977" type="line"/>
      <point x="328" y="1245"/>
      <point x="478" y="1383"/>
      <point x="655" y="1383" type="curve" smooth="yes"/>
      <point x="797" y="1383"/>
      <point x="906" y="1305"/>
      <point x="895" y="1103" type="curve" smooth="yes"/>
      <point x="887" y="941"/>
      <point x="798" y="785"/>
      <point x="547" y="790" type="curve"/>
      <point x="609" y="703" type="line"/>
      <point x="726" y="760" type="line"/>
      <point x="726" y="764" type="line"/>
      <point x="953" y="805"/>
      <point x="1072" y="954"/>
      <point x="1084" y="1117" type="curve" smooth="yes"/>
      <point x="1098" y="1332"/>
      <point x="929" y="1467"/>
      <point x="666" y="1467" type="curve" smooth="yes"/>
    </contour>
  </outline>
</glyph>
<glyph name="Ii-cy" format="1">
  <advance width="1603"/>
  <unicode hex="0418"/>
  <outline>
    <contour>
      <point x="455" y="1139" type="line"/>
      <point x="463" y="1285"/>
      <point x="475" y="1360"/>
      <point x="609" y="1366" type="curve"/>
      <point x="613" y="1434" type="line"/>
      <point x="160" y="1434" type="line"/>
      <point x="156" y="1343" type="line"/>
      <point x="304" y="1352" type="line"/>
      <point x="297" y="1311"/>
      <point x="292" y="1260"/>
      <point x="289" y="1204" type="curve" smooth="yes"/>
      <point x="242" y="319" type="line" smooth="yes"/>
      <point x="234" y="174"/>
      <point x="242" y="74"/>
      <point x="89" y="68" type="curve"/>
      <point x="84" y="0" type="line"/>
      <point x="537" y="0" type="line"/>
      <point x="541" y="90" type="line"/>
      <point x="394" y="82" type="line"/>
      <point x="400" y="117"/>
      <point x="404" y="170"/>
      <point x="408" y="244" type="curve"/>
    </contour>
    <contour>
      <point x="1167" y="319" type="line"/>
      <point x="1161" y="174"/>
      <point x="1167" y="74"/>
      <point x="1014" y="68" type="curve"/>
      <point x="1010" y="0" type="line"/>
      <point x="1462" y="0" type="line"/>
      <point x="1466" y="90" type="line"/>
      <point x="1319" y="82" type="line"/>
      <point x="1325" y="117"/>
      <point x="1329" y="170"/>
      <point x="1333" y="244" type="curve" smooth="yes"/>
      <point x="1380" y="1141" type="line" smooth="yes"/>
      <point x="1388" y="1287"/>
      <point x="1400" y="1360"/>
      <point x="1534" y="1366" type="curve"/>
      <point x="1538" y="1434" type="line"/>
      <point x="1085" y="1434" type="line"/>
      <point x="1081" y="1343" type="line"/>
      <point x="1229" y="1352" type="line"/>
      <point x="1223" y="1311"/>
      <point x="1217" y="1260"/>
      <point x="1214" y="1204" type="curve"/>
    </contour>
    <contour>
      <point x="1233" y="1345" type="line"/>
      <point x="300" y="115" type="line"/>
      <point x="366" y="59" type="line"/>
      <point x="1292" y="1293" type="line"/>
    </contour>
  </outline>
</glyph>
<glyph name="Che-cy" format="1">
  <advance width="1422"/>
  <unicode hex="0427"/>
  <outline>
    <contour>
      <point x="1199" y="1141" type="line" smooth="yes"/>
      <point x="1207" y="1287"/>
      <point x="1219" y="1360"/>
      <point x="1353" y="1366" type="curve"/>
      <point x="1357" y="1434" type="line"/>
      <point x="904" y="1434" type="line"/>
      <point x="900" y="1343" type="line"/>
      <point x="1048" y="1352" type="line"/>
      <point x="1042" y="1311"/>
      <point x="1036" y="1260"/>
      <point x="1033" y="1204" type="curve" smooth="yes"/>
      <point x="1008" y="737" type="line"/>
      <point x="933" y="695"/>
      <point x="827" y="664"/>
      <point x="663" y="664" type="curve" smooth="yes"/>
      <point x="489" y="664"/>
      <point x="387" y="765"/>
      <point x="396" y="923" type="curve" smooth="yes"/>
      <point x="408" y="1139" type="line" smooth="yes"/>
      <point x="416" y="1285"/>
      <point x="428" y="1360"/>
      <point x="562" y="1366" type="curve"/>
      <point x="566" y="1434" type="line"/>
      <point x="113" y="1434" type="line"/>
      <point x="109" y="1343" type="line"/>
      <point x="257" y="1352" type="line"/>
      <point x="250" y="1311"/>
      <point x="245" y="1260"/>
      <point x="242" y="1204" type="curve" smooth="yes"/>
      <point x="230" y="966" type="line" smooth="yes"/>
      <point x="216" y="703"/>
      <point x="334" y="560"/>
      <point x="588" y="560" type="curve" smooth="yes"/>
      <point x="767" y="560"/>
      <point x="907" y="590"/>
      <point x="1003" y="637" type="curve"/>
      <point x="986" y="319" type="line" smooth="yes"/>
      <point x="980" y="174"/>
      <point x="986" y="74"/>
      <point x="833" y="68" type="curve"/>
      <point x="829" y="0" type="line"/>
      <point x="1281" y="0" type="line"/>
      <point x="1285" y="90" type="line"/>
      <point x="1138" y="82" type="line"/>
      <point x="1144" y="117"/>
      <point x="1148" y="170"/>
      <point x="1152" y="244" type="curve" smooth="yes"/>
    </contour>
  </outline>
</glyph>
<glyph name="Softsign-cy" format="1">
  <advance width="1225"/>
  <unicode hex="042C"/>
  <outline>
    <contour>
      <point x="439" y="784" type="line"/>
      <point x="457" y="1134" type="line" smooth="yes"/>
      <point x="463" y="1280"/>
      <point x="465" y="1360"/>
      <point x="609" y="1366" type="curve"/>
      <point x="613" y="1434" type="line"/>
      <point x="160" y="1434" type="line"/>
      <point x="156" y="1343" type="line"/>
      <point x="304" y="1352" type="line"/>
      <point x="297" y="1311"/>
      <point x="291" y="1260"/>
      <point x="289" y="1204" type="curve" smooth="yes"/>
      <point x="244" y="330" type="line" smooth="yes"/>
      <point x="236" y="176"/>
      <point x="242" y="72"/>
      <point x="89" y="68" type="curve"/>
      <point x="84" y="0" type="line"/>
      <point x="676" y="0" type="line" smooth="yes"/>
      <point x="953" y="0"/>
      <point x="1174" y="140"/>
      <point x="1174" y="420" type="curve" smooth="yes"/>
      <point x="1174" y="657"/>
      <point x="1018" y="798"/>
      <point x="610" y="788" type="curve" smooth="yes"/>
    </contour>
    <contour>
      <point x="435" y="705" type="line"/>
      <point x="500" y="709"/>
      <point x="564" y="711"/>
      <point x="646" y="711" type="curve" smooth="yes"/>
      <point x="832" y="711"/>
      <point x="994" y="631"/>
      <point x="982" y="399" type="curve" smooth="yes"/>
      <point x="971" y="184"/>
      <point x="824" y="80"/>
      <point x="613" y="80" type="curve" smooth="yes"/>
      <point x="586" y="80"/>
      <point x="459" y="78"/>
      <point x="396" y="84" type="curve"/>
      <point x="402" y="119"/>
      <point x="406" y="170"/>
      <point x="410" y="244" type="curve" smooth="yes"/>
    </contour>
  </outline>
</glyph>
<glyph name="Ereversed-cy" format="1">
  <advance width="1405"/>
  <unicode hex="042D"/>
  <outline>
    <contour>
      <point x="512" y="1467"/>
      <point x="377" y="1426"/>
      <point x="247" y="1342" type="curve"/>
      <point x="263" y="1452" type="line"/>
      <point x="152" y="1452" type="line"/>
      <point x="127" y="977" type="line"/>
      <point x="201" y="977" type="line"/>
      <point x="243" y="1233"/>
      <point x="410" y="1383"/>
      <point x="648" y="1383" type="curve" smooth="yes"/>
      <point x="939" y="1383"/>
      <point x="1158" y="1126"/>
      <point x="1137" y="725" type="curve" smooth="yes"/>
      <point x="1117" y="338"/>
      <point x="857" y="74"/>
      <point x="554" y="74" type="curve" smooth="yes"/>
      <point x="376" y="74"/>
      <point x="197" y="156"/>
      <point x="94" y="309" type="curve"/>
      <point x="38" y="266" type="line"/>
      <point x="202" y="23"/>
      <point x="435" y="-33"/>
      <point x="603" y="-33" type="curve" smooth="yes"/>
      <point x="1014" y="-33"/>
      <point x="1315" y="287"/>
      <point x="1337" y="694" type="curve" smooth="yes"/>
      <point x="1357" y="1079"/>
      <point x="1143" y="1467"/>
      <point x="666" y="1467" type="curve" smooth="yes"/>
    </contour>
    <contour>
      <point x="361" y="530" type="line"/>
      <point x="428" y="530" type="line"/>
      <point x="438" y="711"/>
      <point x="508" y="713"/>
      <point x="682" y="711" type="curve" smooth="yes"/>
      <point x="1200" y="705" type="line"/>
      <point x="1205" y="786" type="line"/>
      <point x="451" y="784" type="line"/>
      <point x="475" y="961" type="line"/>
      <point x="384" y="961" type="line"/>
    </contour>
  </outline>
</glyph>
<glyph name="Iu-cy" format="1">
  <advance width="2087"/>
  <unicode hex="042E"/>
  <outline>
    <contour>
      <point x="709" y="774" type="line"/>
      <point x="435" y="774" type="line"/>
      <point x="455" y="1139" type="line" smooth="yes"/>
      <point x="463" y="1285"/>
      <point x="475" y="1360"/>
      <point x="609" y="1366" type="curve"/>
      <point x="613" y="1434" type="line"/>
      <point x="160" y="1434" type="line"/>
      <point x="156" y="1343" type="line"/>
      <point x="304" y="1352" type="line"/>
      <point x="297" y="1311"/>
      <point x="292" y="1260"/>
      <point x="289" y="1204" type="curve" smooth="yes"/>
      <point x="242" y="319" type="line" smooth="yes"/>
      <point x="234" y="174"/>
      <point x="242" y="74"/>
      <point x="89" y="68" type="curve"/>
      <point x="84" y="0" type="line"/>
      <point x="537" y="0" type="line"/>
      <point x="541" y="90" type="line"/>
      <point x="394" y="82" type="line"/>
      <point x="400" y="117"/>
      <point x="404" y="170"/>
      <point x="408" y="244" type="curve" smooth="yes"/>
      <point x="431" y="684" type="line"/>
      <point x="705" y="693" type="line"/>
    </contour>
    <contour>
      <point x="1634" y="1385"/>
      <point x="1805" y="1093"/>
      <point x="1805" y="723" type="curve" smooth="yes"/>
      <point x="1805" y="366"/>
      <point x="1618" y="51"/>
      <point x="1295" y="51" type="curve" smooth="yes"/>
      <point x="993" y="51"/>
      <point x="865" y="376"/>
      <point x="869" y="715" type="curve" smooth="yes"/>
      <point x="873" y="1070"/>
      <point x="1058" y="1385"/>
      <point x="1338" y="1385" type="curve" smooth="yes"/>
    </contour>
    <contour>
      <point x="673" y="320"/>
      <point x="868" y="-33"/>
      <point x="1285" y="-33" type="curve" smooth="yes"/>
      <point x="1757" y="-33"/>
      <point x="2001" y="382"/>
      <point x="2001" y="756" type="curve" smooth="yes"/>
      <point x="2001" y="1119"/>
      <point x="1800" y="1467"/>
      <point x="1349" y="1467" type="curve" smooth="yes"/>
      <point x="956" y="1467"/>
      <point x="673" y="1111"/>
      <point x="673" y="670" type="curve" smooth="yes"/>
    </contour>
  </outline>
</glyph>
<glyph name="ve-cy" format="1">
  <advance width="957"/>
  <unicode hex="0432"/>
  <outline>
    <contour>
      <point x="441" y="509" type="line"/>
      <point x="710" y="574"/>
      <point x="824" y="715"/>
      <point x="824" y="846" type="curve" smooth="yes"/>
      <point x="824" y="988"/>
      <point x="692" y="1047"/>
      <point x="554" y="1047" type="curve" smooth="yes"/>
      <point x="241" y="1047"/>
      <point x="79" y="737"/>
      <point x="79" y="420" type="curve" smooth="yes"/>
      <point x="79" y="154"/>
      <point x="198" y="-23"/>
      <point x="453" y="-23" type="curve" smooth="yes"/>
      <point x="695" y="-23"/>
      <point x="872" y="136"/>
      <point x="872" y="340" type="curve" smooth="yes"/>
      <point x="872" y="491"/>
      <point x="769" y="646"/>
      <point x="431" y="530" type="curve"/>
      <point x="446" y="483" type="line"/>
      <point x="613" y="535"/>
      <point x="699" y="430"/>
      <point x="699" y="289" type="curve" smooth="yes"/>
      <point x="699" y="147"/>
      <point x="624" y="56"/>
      <point x="499" y="56" type="curve" smooth="yes"/>
      <point x="336" y="56"/>
      <point x="266" y="209"/>
      <point x="258" y="434" type="curve"/>
      <point x="446" y="483" type="line"/>
    </contour>
    <contour>
      <point x="616" y="977"/>
      <point x="646" y="919"/>
      <point x="646" y="831" type="curve" smooth="yes"/>
      <point x="646" y="675"/>
      <point x="553" y="580"/>
      <point x="261" y="512" type="curve"/>
      <point x="276" y="764"/>
      <point x="377" y="977"/>
      <point x="534" y="977" type="curve" smooth="yes"/>
    </contour>
  </outline>
</glyph>
<glyph name="ge-cy" format="1">
  <advance width="851"/>
  <unicode hex="0433"/>
  <outline>
    <contour>
      <point x="589" y="97"/>
      <point x="504" y="55"/>
      <point x="414" y="55" type="curve" smooth="yes"/>
      <point x="333" y="55"/>
      <point x="256" y="106"/>
      <point x="256" y="229" type="curve" smooth="yes"/>
      <point x="256" y="302"/>
      <point x="283" y="395"/>
      <point x="443" y="476" type="curve" smooth="yes"/>
      <point x="665" y="589"/>
      <point x="760" y="682"/>
      <point x="771" y="817" type="curve" smooth="yes"/>
      <point x="781" y="950"/>
      <point x="703" y="1045"/>
      <point x="524" y="1046" type="curve" smooth="yes"/>
      <point x="325" y="1047"/>
      <point x="159" y="935"/>
      <point x="151" y="820" type="curve" smooth="yes"/>
      <point x="147" y="765"/>
      <point x="180" y="726"/>
      <point x="237" y="726" type="curve" smooth="yes"/>
      <point x="286" y="726"/>
      <point x="320" y="755"/>
      <point x="321" y="797" type="curve" smooth="yes"/>
      <point x="322" y="825"/>
      <point x="309" y="857"/>
      <point x="266" y="869" type="curve"/>
      <point x="317" y="935"/>
      <point x="392" y="962"/>
      <point x="460" y="962" type="curve" smooth="yes"/>
      <point x="527" y="962"/>
      <point x="598" y="936"/>
      <point x="586" y="800" type="curve" smooth="yes"/>
      <point x="578" y="716"/>
      <point x="552" y="654"/>
      <point x="396" y="572" type="curve" smooth="yes"/>
      <point x="136" y="440"/>
      <point x="71" y="341"/>
      <point x="71" y="238" type="curve" smooth="yes"/>
      <point x="71" y="87"/>
      <point x="192" y="-23"/>
      <point x="395" y="-23" type="curve" smooth="yes"/>
      <point x="572" y="-23"/>
      <point x="736" y="85"/>
      <point x="750" y="223" type="curve" smooth="yes"/>
      <point x="756" y="287"/>
      <point x="726" y="327"/>
      <point x="665" y="327" type="curve" smooth="yes"/>
      <point x="614" y="327"/>
      <point x="584" y="298"/>
      <point x="579" y="254" type="curve" smooth="yes"/>
      <point x="573" y="201"/>
      <point x="609" y="169"/>
      <point x="641" y="165" type="curve"/>
    </contour>
  </outline>
</glyph>
<glyph name="de-cy" format="1">
  <advance width="1000"/>
  <unicode hex="0434"/>
  <outline>
    <contour>
      <point x="221" y="1380" type="line"/>
      <point x="292" y="1449"/>
      <point x="368" y="1476"/>
      <point x="439" y="1476" type="curve" smooth="yes"/>
      <point x="594" y="1476"/>
      <point x="722" y="1291"/>
      <point x="755" y="928" type="curve"/>
      <point x="713" y="983"/>
      <point x="642" y="1007"/>
      <point x="558" y="1007" type="curve" smooth="yes"/>
      <point x="296" y="1007"/>
      <point x="85" y="772"/>
      <point x="79" y="428" type="curve" smooth="yes"/>
      <point x="73" y="131"/>
      <point x="228" y="-23"/>
      <point x="437" y="-23" type="curve" smooth="yes"/>
      <point x="672" y="-23"/>
      <point x="911" y="160"/>
      <point x="924" y="703" type="curve" smooth="yes"/>
      <point x="934" y="1148"/>
      <point x="803" y="1553"/>
      <point x="460" y="1553" type="curve" smooth="yes"/>
      <point x="359" y="1553"/>
      <point x="279" y="1511"/>
      <point x="182" y="1428" type="curve"/>
    </contour>
    <contour>
      <point x="681" y="931"/>
      <point x="765" y="805"/>
      <point x="755" y="622" type="curve" smooth="yes"/>
      <point x="741" y="368"/>
      <point x="670" y="55"/>
      <point x="476" y="55" type="curve" smooth="yes"/>
      <point x="331" y="55"/>
      <point x="246" y="226"/>
      <point x="251" y="450" type="curve" smooth="yes"/>
      <point x="257" y="754"/>
      <point x="418" y="931"/>
      <point x="561" y="931" type="curve" smooth="yes"/>
    </contour>
  </outline>
</glyph>
<glyph name="el-cy" format="1">
  <advance width="1196"/>
  <unicode hex="043B"/>
  <outline>
    <contour>
      <point x="573" y="973" type="line"/>
      <point x="520" y="565"/>
      <point x="355" y="58"/>
      <point x="171" y="78" type="curve"/>
      <point x="173" y="86"/>
      <point x="174" y="94"/>
      <point x="174" y="108" type="curve" smooth="yes"/>
      <point x="174" y="155"/>
      <point x="130" y="189"/>
      <point x="86" y="189" type="curve" smooth="yes"/>
      <point x="30" y="189"/>
      <point x="-8" y="141"/>
      <point x="-8" y="90" type="curve" smooth="yes"/>
      <point x="-8" y="30"/>
      <point x="48" y="-20"/>
      <point x="125" y="-20" type="curve" smooth="yes"/>
      <point x="431" y="-20"/>
      <point x="589" y="442"/>
      <point x="682" y="973" type="curve"/>
    </contour>
    <contour>
      <point x="814" y="1024" type="line"/>
      <point x="816" y="984"/>
      <point x="818" y="946"/>
      <point x="818" y="906" type="curve" smooth="yes"/>
      <point x="818" y="662"/>
      <point x="746" y="302"/>
      <point x="746" y="162" type="curve" smooth="yes"/>
      <point x="746" y="51"/>
      <point x="793" y="-23"/>
      <point x="904" y="-23" type="curve" smooth="yes"/>
      <point x="1068" y="-23"/>
      <point x="1152" y="170"/>
      <point x="1170" y="266" type="curve"/>
      <point x="1113" y="278" type="line"/>
      <point x="1072" y="133"/>
      <point x="1008" y="82"/>
      <point x="963" y="82" type="curve" smooth="yes"/>
      <point x="920" y="82"/>
      <point x="908" y="123"/>
      <point x="908" y="172" type="curve" smooth="yes"/>
      <point x="908" y="299"/>
      <point x="988" y="815"/>
      <point x="988" y="971" type="curve" smooth="yes"/>
      <point x="988" y="993"/>
      <point x="988" y="1006"/>
      <point x="986" y="1024" type="curve"/>
    </contour>
    <contour>
      <point x="676" y="945" type="line"/>
      <point x="659" y="853" type="line"/>
      <point x="668" y="902"/>
      <point x="685" y="945"/>
      <point x="732" y="945" type="curve"/>
    </contour>
    <contour>
      <point x="388" y="1024" type="line"/>
      <point x="380" y="942" type="line"/>
      <point x="948" y="947" type="line"/>
      <point x="954" y="1024" type="line"/>
    </contour>
  </outline>
</glyph>
<glyph name="ef-cy" format="1">
  <advance width="1492"/>
  <unicode hex="0444"/>
  <outline>
    <contour>
      <point x="884" y="1546" type="line"/>
      <point x="851" y="1518"/>
      <point x="804" y="1491"/>
      <point x="624" y="1491" type="curve"/>
      <point x="615" y="1409" type="line"/>
      <point x="761" y="1417" type="line"/>
      <point x="755" y="1389"/>
      <point x="752" y="1380"/>
      <point x="742" y="1307" type="curve" smooth="yes"/>
      <point x="677" y="830"/>
      <point x="630" y="149"/>
      <point x="606" y="-174" type="curve" smooth="yes"/>
      <point x="594" y="-334"/>
      <point x="596" y="-461"/>
      <point x="481" y="-461" type="curve"/>
      <point x="481" y="-522" type="line"/>
      <point x="868" y="-522" type="line"/>
      <point x="868" y="-438" type="line"/>
      <point x="739" y="-444" type="line"/>
      <point x="752" y="-397"/>
      <point x="752" y="-330"/>
      <point x="756" y="-274" type="curve" smooth="yes"/>
      <point x="825" y="651"/>
      <point x="839" y="824"/>
      <point x="888" y="1198" type="curve" smooth="yes"/>
      <point x="900" y="1290"/>
      <point x="927" y="1444"/>
      <point x="943" y="1546" type="curve"/>
    </contour>
    <contour>
      <point x="271" y="1047"/>
      <point x="80" y="768"/>
      <point x="80" y="436" type="curve" smooth="yes"/>
      <point x="80" y="182"/>
      <point x="213" y="-23"/>
      <point x="453" y="-23" type="curve" smooth="yes"/>
      <point x="530" y="-23"/>
      <point x="593" y="-4"/>
      <point x="641" y="44" type="curve"/>
      <point x="646" y="145" type="line"/>
      <point x="607" y="83"/>
      <point x="549" y="55"/>
      <point x="472" y="56" type="curve" smooth="yes"/>
      <point x="313" y="59"/>
      <point x="256" y="315"/>
      <point x="260" y="504" type="curve" smooth="yes"/>
      <point x="264" y="766"/>
      <point x="373" y="971"/>
      <point x="555" y="971" type="curve" smooth="yes"/>
      <point x="640" y="971"/>
      <point x="678" y="931"/>
      <point x="714" y="865" type="curve"/>
      <point x="729" y="978" type="line"/>
      <point x="687" y="1024"/>
      <point x="635" y="1047"/>
      <point x="556" y="1047" type="curve" smooth="yes"/>
    </contour>
    <contour>
      <point x="790" y="20"/>
      <point x="859" y="-23"/>
      <point x="948" y="-23" type="curve" smooth="yes"/>
      <point x="1216" y="-23"/>
      <point x="1400" y="268"/>
      <point x="1400" y="598" type="curve" smooth="yes"/>
      <point x="1400" y="885"/>
      <point x="1232" y="1047"/>
      <point x="1041" y="1047" type="curve" smooth="yes"/>
      <point x="954" y="1047"/>
      <point x="893" y="1013"/>
      <point x="840" y="969" type="curve"/>
      <point x="829" y="865" type="line"/>
      <point x="883" y="944"/>
      <point x="950" y="970"/>
      <point x="1000" y="970" type="curve" smooth="yes"/>
      <point x="1181" y="970"/>
      <point x="1224" y="727"/>
      <point x="1220" y="535" type="curve" smooth="yes"/>
      <point x="1216" y="336"/>
      <point x="1134" y="54"/>
      <point x="947" y="54" type="curve" smooth="yes"/>
      <point x="867" y="54"/>
      <point x="814" y="97"/>
      <point x="760" y="188" type="curve"/>
      <point x="740" y="84" type="line"/>
    </contour>
  </outline>
</glyph>
<glyph name="che-cy" format="1">
  <advance width="1192"/>
  <unicode hex="0447"/>
  <outline>
    <contour>
      <point x="814" y="662"/>
      <point x="742" y="302"/>
      <point x="742" y="162" type="curve" smooth="yes"/>
      <point x="742" y="51"/>
      <point x="789" y="-23"/>
      <point x="900" y="-23" type="curve" smooth="yes"/>
      <point x="1064" y="-23"/>
      <point x="1148" y="170"/>
      <point x="1166" y="266" type="curve"/>
      <point x="1109" y="278" type="line"/>
      <point x="1068" y="133"/>
      <point x="1004" y="82"/>
      <point x="959" y="82" type="curve" smooth="yes"/>
      <point x="916" y="82"/>
      <point x="904" y="123"/>
      <point x="904" y="172" type="curve" smooth="yes"/>
      <point x="904" y="299"/>
      <point x="984" y="815"/>
      <point x="984" y="971" type="curve" smooth="yes"/>
      <point x="984" y="993"/>
      <point x="984" y="1006"/>
      <point x="982" y="1024" type="curve"/>
      <point x="810" y="1024" type="line"/>
      <point x="812" y="984"/>
      <point x="814" y="946"/>
      <point x="814" y="906" type="curve" smooth="yes"/>
    </contour>
    <contour>
      <point x="813" y="575" type="line"/>
      <point x="736" y="517"/>
      <point x="639" y="473"/>
      <point x="555" y="473" type="curve" smooth="yes"/>
      <point x="464" y="473"/>
      <point x="441" y="525"/>
      <point x="448" y="630" type="curve" smooth="yes"/>
      <point x="453" y="699"/>
      <point x="469" y="766"/>
      <point x="475" y="838" type="curve" smooth="yes"/>
      <point x="485" y="973"/>
      <point x="453" y="1047"/>
      <point x="341" y="1047" type="curve" smooth="yes"/>
      <point x="160" y="1047"/>
      <point x="60" y="855"/>
      <point x="37" y="759" type="curve"/>
      <point x="95" y="746" type="line"/>
      <point x="144" y="892"/>
      <point x="211" y="945"/>
      <point x="260" y="945" type="curve" smooth="yes"/>
      <point x="305" y="945"/>
      <point x="307" y="900"/>
      <point x="303" y="849" type="curve" smooth="yes"/>
      <point x="299" y="779"/>
      <point x="285" y="715"/>
      <point x="281" y="656" type="curve" smooth="yes"/>
      <point x="269" y="484"/>
      <point x="343" y="377"/>
      <point x="506" y="377" type="curve" smooth="yes"/>
      <point x="604" y="377"/>
      <point x="717" y="416"/>
      <point x="836" y="543" type="curve"/>
    </contour>
  </outline>
</glyph>
<glyph name="hardsign-cy" format="1">
  <advance width="899"/>
  <unicode hex="044A"/>
  <outline>
    <contour>
      <point x="292" y="522" type="line"/>
      <point x="561" y="623"/>
      <point x="690" y="565"/>
      <point x="690" y="348" type="curve" smooth="yes"/>
      <point x="690" y="145"/>
      <point x="594" y="56"/>
      <point x="467" y="56" type="curve" smooth="yes"/>
      <point x="293" y="56"/>
      <point x="242" y="251"/>
      <point x="279" y="396" type="curve" smooth="yes"/>
      <point x="326" y="581"/>
      <point x="448" y="769"/>
      <point x="690" y="959" type="curve"/>
      <point x="614" y="993" type="line"/>
      <point x="512" y="942" type="line"/>
      <point x="545" y="907" type="line"/>
      <point x="320" y="782"/>
      <point x="151" y="600"/>
      <point x="104" y="357" type="curve" smooth="yes"/>
      <point x="67" y="127"/>
      <point x="207" y="-23"/>
      <point x="421" y="-23" type="curve" smooth="yes"/>
      <point x="696" y="-23"/>
      <point x="846" y="142"/>
      <point x="859" y="350" type="curve" smooth="yes"/>
      <point x="876" y="658"/>
      <point x="564" y="719"/>
      <point x="337" y="608" type="curve"/>
    </contour>
    <contour>
      <point x="690" y="959" type="line"/>
      <point x="632" y="1014" type="line"/>
      <point x="603" y="997"/>
      <point x="580" y="990"/>
      <point x="546" y="990" type="curve" smooth="yes"/>
      <point x="453" y="990"/>
      <point x="408" y="1044"/>
      <point x="239" y="1044" type="curve" smooth="yes"/>
      <point x="88" y="1044"/>
      <point x="25" y="947"/>
      <point x="76" y="773" type="curve"/>
      <point x="127" y="780" type="line"/>
      <point x="104" y="870"/>
      <point x="137" y="920"/>
      <point x="207" y="920" type="curve" smooth="yes"/>
      <point x="308" y="920"/>
      <point x="359" y="893"/>
      <point x="425" y="893" type="curve" smooth="yes"/>
      <point x="467" y="893"/>
      <point x="515" y="904"/>
      <point x="585" y="941" type="curve"/>
    </contour>
  </outline>
</glyph>
<glyph name="yeru-cy" format="1">
  <advance width="1469"/>
  <unicode hex="044B"/>
  <outline>
    <contour>
      <point x="1091" y="662"/>
      <point x="1019" y="302"/>
      <point x="1019" y="162" type="curve" smooth="yes"/>
      <point x="1019" y="51"/>
      <point x="1066" y="-23"/>
      <point x="1177" y="-23" type="curve" smooth="yes"/>
      <point x="1341" y="-23"/>
      <point x="1425" y="170"/>
      <point x="1443" y="266" type="curve"/>
      <point x="1386" y="278" type="line"/>
      <point x="1345" y="133"/>
      <point x="1281" y="82"/>
      <point x="1236" y="82" type="curve" smooth="yes"/>
      <point x="1193" y="82"/>
      <point x="1181" y="123"/>
      <point x="1181" y="172" type="curve" smooth="yes"/>
      <point x="1181" y="299"/>
      <point x="1261" y="815"/>
      <point x="1261" y="971" type="curve" smooth="yes"/>
      <point x="1261" y="993"/>
      <point x="1261" y="1006"/>
      <point x="1259" y="1024" type="curve"/>
      <point x="1087" y="1024" type="line"/>
      <point x="1089" y="984"/>
      <point x="1091" y="946"/>
      <point x="1091" y="906" type="curve" smooth="yes"/>
    </contour>
    <component base="softsign-cy"/>
  </outline>
</glyph>
<glyph name="ereversed-cy" format="1">
  <advance width="1071"/>
  <unicode hex="044D"/>
  <outline>
    <contour>
      <point x="286" y="1047" type="line"/>
      <point x="200" y="1047" type="line"/>
      <point x="181" y="688" type="line"/>
      <point x="245" y="688" type="line"/>
      <point x="263" y="829"/>
      <point x="370" y="962"/>
      <point x="552" y="962" type="curve" smooth="yes"/>
      <point x="725" y="962"/>
      <point x="812" y="805"/>
      <point x="795" y="480" type="curve" smooth="yes"/>
      <point x="781" y="216"/>
      <point x="629" y="52"/>
      <point x="442" y="52" type="curve" smooth="yes"/>
      <point x="345" y="52"/>
      <point x="277" y="79"/>
      <point x="233" y="153" type="curve"/>
      <point x="258" y="178"/>
      <point x="267" y="209"/>
      <point x="269" y="236" type="curve" smooth="yes"/>
      <point x="270" y="271"/>
      <point x="249" y="330"/>
      <point x="178" y="328" type="curve" smooth="yes"/>
      <point x="117" y="327"/>
      <point x="81" y="278"/>
      <point x="78" y="220" type="curve" smooth="yes"/>
      <point x="71" y="87"/>
      <point x="215" y="-33"/>
      <point x="443" y="-33" type="curve" smooth="yes"/>
      <point x="760" y="-33"/>
      <point x="963" y="237"/>
      <point x="977" y="530" type="curve" smooth="yes"/>
      <point x="994" y="893"/>
      <point x="806" y="1057"/>
      <point x="574" y="1057" type="curve" smooth="yes"/>
      <point x="463" y="1057"/>
      <point x="378" y="1024"/>
      <point x="277" y="962" type="curve"/>
    </contour>
    <contour>
      <point x="834" y="484" type="line"/>
      <point x="838" y="564" type="line"/>
      <point x="333" y="564" type="line"/>
      <point x="328" y="480" type="line"/>
    </contour>
  </outline>
</glyph>
<glyph name="ia-cy" format="1">
  <advance width="1156"/>
  <unicode hex="044F"/>
  <outline>
    <contour>
      <point x="766" y="490" type="line"/>
      <point x="700" y="474"/>
      <point x="655" y="467"/>
      <point x="611" y="467" type="curve" smooth="yes"/>
      <point x="485" y="467"/>
      <point x="430" y="566"/>
      <point x="432" y="691" type="curve" smooth="yes"/>
      <point x="436" y="915"/>
      <point x="606" y="998"/>
      <point x="806" y="928" type="curve"/>
      <point x="799" y="837"/>
      <point x="792" y="776"/>
      <point x="713" y="284" type="curve" smooth="yes"/>
      <point x="683" y="91"/>
      <point x="696" y="-22"/>
      <point x="850" y="-22" type="curve" smooth="yes"/>
      <point x="1013" y="-22"/>
      <point x="1092" y="124"/>
      <point x="1126" y="267" type="curve"/>
      <point x="1069" y="279" type="line"/>
      <point x="1022" y="134"/>
      <point x="957" y="81"/>
      <point x="912" y="81" type="curve" smooth="yes"/>
      <point x="865" y="81"/>
      <point x="853" y="114"/>
      <point x="860" y="173" type="curve" smooth="yes"/>
      <point x="966" y="1018" type="line"/>
      <point x="862" y="1034"/>
      <point x="794" y="1040"/>
      <point x="689" y="1040" type="curve" smooth="yes"/>
      <point x="482" y="1040"/>
      <point x="275" y="943"/>
      <point x="266" y="712" type="curve" smooth="yes"/>
      <point x="258" y="537"/>
      <point x="379" y="436"/>
      <point x="525" y="416" type="curve"/>
      <point x="525" y="391" type="line"/>
      <point x="599" y="391"/>
      <point x="675" y="398"/>
      <point x="761" y="412" type="curve"/>
    </contour>
    <contour>
      <point x="570" y="426" type="line"/>
      <point x="386" y="455"/>
      <point x="336" y="385"/>
      <point x="290" y="271" type="curve" smooth="yes"/>
      <point x="229" y="122"/>
      <point x="213" y="100"/>
      <point x="175" y="94" type="curve" smooth="yes"/>
      <point x="133" y="87"/>
      <point x="80" y="119"/>
      <point x="66" y="221" type="curve"/>
      <point x="8" y="209" type="line"/>
      <point x="21" y="94"/>
      <point x="78" y="-22"/>
      <point x="205" y="-22" type="curve" smooth="yes"/>
      <point x="310" y="-22"/>
      <point x="363" y="14"/>
      <point x="425" y="203" type="curve" smooth="yes"/>
      <point x="470" y="344"/>
      <point x="499" y="392"/>
      <point x="561" y="392" type="curve"/>
    </contour>
  </outline>
</glyph>
<glyph name="nje-cy" format="1">
  <advance width="1565"/>
  <unicode hex="045A"/>
  <outline>
    <contour>
      <point x="440" y="741" type="line" smooth="yes"/>
      <point x="459" y="896"/>
      <point x="452" y="1047"/>
      <point x="298" y="1047" type="curve" smooth="yes"/>
      <point x="135" y="1047"/>
      <point x="48" y="854"/>
      <point x="27" y="758" type="curve"/>
      <point x="84" y="746" type="line"/>
      <point x="128" y="891"/>
      <point x="192" y="944"/>
      <point x="237" y="944" type="curve" smooth="yes"/>
      <point x="284" y="944"/>
      <point x="292" y="901"/>
      <point x="291" y="852" type="curve" smooth="yes"/>
      <point x="290" y="791"/>
      <point x="288" y="783"/>
      <point x="245" y="463" type="curve" smooth="yes"/>
      <point x="211" y="205"/>
      <point x="198" y="123"/>
      <point x="197" y="53" type="curve" smooth="yes"/>
      <point x="197" y="31"/>
      <point x="196" y="18"/>
      <point x="198" y="0" type="curve"/>
      <point x="370" y="0" type="line"/>
      <point x="365" y="39"/>
      <point x="362" y="78"/>
      <point x="368" y="128" type="curve" smooth="yes"/>
    </contour>
    <contour>
      <point x="887" y="447" type="line"/>
      <point x="893" y="524" type="line"/>
      <point x="367" y="524" type="line"/>
      <point x="359" y="442" type="line"/>
    </contour>
    <contour>
      <point x="844" y="784"/>
      <point x="824" y="598"/>
      <point x="806" y="460" type="curve"/>
      <point x="965" y="465" type="line"/>
      <point x="987" y="648"/>
      <point x="1014" y="883"/>
      <point x="1014" y="971" type="curve" smooth="yes"/>
      <point x="1014" y="993"/>
      <point x="1014" y="1006"/>
      <point x="1012" y="1024" type="curve"/>
      <point x="840" y="1024" type="line"/>
      <point x="842" y="984"/>
      <point x="844" y="946"/>
      <point x="844" y="906" type="curve" smooth="yes"/>
    </contour>
    <contour>
      <point x="806" y="460" type="line"/>
      <point x="800" y="425"/>
      <point x="792" y="370"/>
      <point x="780" y="300" type="curve" smooth="yes"/>
      <point x="755" y="115"/>
      <point x="839" y="-23"/>
      <point x="1049" y="-23" type="curve" smooth="yes"/>
      <point x="1306" y="-23"/>
      <point x="1488" y="154"/>
      <point x="1492" y="377" type="curve" smooth="yes"/>
      <point x="1495" y="559"/>
      <point x="1369" y="664"/>
      <point x="1195" y="664" type="curve" smooth="yes"/>
      <point x="1112" y="664"/>
      <point x="1036" y="630"/>
      <point x="950" y="580" type="curve"/>
      <point x="947" y="486" type="line"/>
      <point x="1023" y="553"/>
      <point x="1097" y="588"/>
      <point x="1171" y="588" type="curve" smooth="yes"/>
      <point x="1297" y="588"/>
      <point x="1326" y="485"/>
      <point x="1323" y="335" type="curve" smooth="yes"/>
      <point x="1320" y="155"/>
      <point x="1237" y="56"/>
      <point x="1105" y="56" type="curve" smooth="yes"/>
      <point x="998" y="56"/>
      <point x="911" y="134"/>
      <point x="935" y="281" type="curve" smooth="yes"/>
      <point x="965" y="465" type="line"/>
    </contour>
  </outline>
</glyph>
<glyph name="Gheupturn-cy" format="1">
  <advance width="1108"/>
  <unicode hex="0490"/>
  <outline>
    <contour>
      <point x="1053" y="1718" type="line"/>
      <point x="1040" y="1476"/>
      <point x="915" y="1434"/>
      <point x="761" y="1434" type="curve" smooth="yes"/>
      <point x="160" y="1434" type="line"/>
      <point x="156" y="1343" type="line"/>
      <point x="306" y="1352" type="line"/>
      <point x="299" y="1311"/>
      <point x="293" y="1260"/>
      <point x="291" y="1204" type="curve" smooth="yes"/>
      <point x="242" y="319" type="line" smooth="yes"/>
      <point x="236" y="174"/>
      <point x="242" y="74"/>
      <point x="89" y="68" type="curve"/>
      <point x="84" y="0" type="line"/>
      <point x="598" y="0" type="line"/>
      <point x="603" y="90" type="line"/>
      <point x="394" y="82" type="line"/>
      <point x="400" y="117"/>
      <point x="406" y="170"/>
      <point x="408" y="244" type="curve" smooth="yes"/>
      <point x="454" y="1131" type="line" smooth="yes"/>
      <point x="461" y="1274"/>
      <point x="468" y="1354"/>
      <point x="609" y="1358" type="curve" smooth="yes"/>
      <point x="1101" y="1358" type="line"/>
      <point x="1120" y="1718" type="line"/>
    </contour>
  </outline>
</glyph>
<glyph name="product" format="1">
  <advance width="1635"/>
  <unicode hex="220F"/>
  <outline>
    <contour>
      <point x="113" y="1434" type="line"/>
      <point x="113" y="1343" type="line"/>
      <point x="261" y="1352" type="line"/>
      <point x="256" y="1311"/>
      <point x="254" y="1260"/>
      <point x="254" y="1204" type="curve" smooth="yes"/>
      <point x="254" y="-203" type="line" smooth="yes"/>
      <point x="254" y="-348"/>
      <point x="267" y="-448"/>
      <point x="113" y="-454" type="curve"/>
      <point x="113" y="-522" type="line"/>
      <point x="574" y="-522" type="line"/>
      <point x="574" y="-432" type="line"/>
      <point x="426" y="-440" type="line"/>
      <point x="431" y="-405"/>
      <point x="433" y="-352"/>
      <point x="433" y="-278" type="curve" smooth="yes"/>
      <point x="433" y="1344" type="line"/>
      <point x="1196" y="1353" type="line"/>
      <point x="1196" y="-203" type="line" smooth="yes"/>
      <point x="1196" y="-348"/>
      <point x="1208" y="-448"/>
      <point x="1054" y="-454" type="curve"/>
      <point x="1054" y="-522" type="line"/>
      <point x="1515" y="-522" type="line"/>
      <point x="1515" y="-432" type="line"/>
      <point x="1368" y="-440" type="line"/>
      <point x="1372" y="-405"/>
      <point x="1374" y="-352"/>
      <point x="1374" y="-278" type="curve" smooth="yes"/>
      <point x="1374" y="1114" type="line" smooth="yes"/>
      <point x="1374" y="1260"/>
      <point x="1362" y="1360"/>
      <point x="1515" y="1366" type="curve"/>
      <point x="1515" y="1434" type="line"/>
    </contour>
  </outline>
</glyph>
<glyph name="notequal" format="1">
  <advance width="1124"/>
  <unicode hex="2260"/>
  <outline>
    <contour>
      <point x="688" y="876" type="line"/>
      <point x="116" y="879" type="line"/>
      <point x="110" y="760" type="line"/>
      <point x="606" y="762" type="line"/>
      <point x="408" y="484" type="line"/>
      <point x="96" y="486" type="line"/>
      <point x="90" y="367" type="line"/>
      <point x="324" y="368" type="line"/>
      <point x="166" y="147" type="line"/>
      <point x="245" y="84" type="line"/>
      <point x="450" y="368" type="line"/>
      <point x="1001" y="371" type="line"/>
      <point x="1007" y="482" type="line"/>
      <point x="534" y="484" type="line"/>
      <point x="735" y="762" type="line"/>
      <point x="1022" y="764" type="line"/>
      <point x="1028" y="875" type="line"/>
      <point x="817" y="876" type="line"/>
      <point x="954" y="1065" type="line"/>
      <point x="870" y="1130" type="line"/>
    </contour>
  </outline>
</glyph>
<glyph name="greaterequal" format="1">
  <advance width="1135"/>
  <unicode hex="2265"/>
  <outline>
    <contour>
      <point x="136" y="1024" type="line"/>
      <point x="895" y="682" type="line"/>
      <point x="895" y="680" type="line"/>
      <point x="101" y="338" type="line"/>
      <point x="93" y="215" type="line"/>
      <point x="1027" y="620" type="line"/>
      <point x="1033" y="754" type="line"/>
      <point x="144" y="1151" type="line"/>
    </contour>
    <contour>
      <point x="93" y="102" type="line"/>
      <point x="88" y="0" type="line"/>
      <point x="1000" y="0" type="line"/>
      <point x="1005" y="111" type="line"/>
    </contour>
  </outline>
</glyph>
<glyph name="cyrbreve" format="1">
  <advance width="600"/>
  <unicode hex="F6D4"/>
  <outline>
    <contour>
      <point x="624" y="1455" type="line"/>
      <point x="600" y="1414"/>
      <point x="573" y="1368"/>
      <point x="542" y="1343" type="curve" smooth="yes"/>
      <point x="498" y="1309"/>
      <point x="445" y="1293"/>
      <point x="378" y="1293" type="curve" smooth="yes"/>
      <point x="320" y="1293"/>
      <point x="286" y="1306"/>
      <point x="256" y="1335" type="curve"/>
      <point x="277" y="1358"/>
      <point x="286" y="1387"/>
      <point x="288" y="1408" type="curve"/>
      <point x="289" y="1445"/>
      <point x="268" y="1501"/>
      <point x="195" y="1499" type="curve" smooth="yes"/>
      <point x="143" y="1498"/>
      <point x="93" y="1468"/>
      <point x="87" y="1395" type="curve" smooth="yes"/>
      <point x="76" y="1274"/>
      <point x="204" y="1214"/>
      <point x="349" y="1214" type="curve" smooth="yes"/>
      <point x="470" y="1214"/>
      <point x="588" y="1273"/>
      <point x="687" y="1398" type="curve"/>
    </contour>
    <contour>
      <point x="329" y="1048" type="move" name="top"/>
    </contour>
  </outline>
</glyph>
<glyph name="fl" format="1">
  <advance width="1251"/>
  <unicode hex="FB02"/>
  <outline>
    <contour>
      <point x="410" y="1556"/>
      <point x="287" y="1325"/>
      <point x="244" y="1059" type="curve" smooth="yes"/>
      <point x="238" y="1024" type="line"/>
      <point x="60" y="1024" type="line"/>
      <point x="50" y="936" type="line"/>
      <point x="227" y="938" type="line"/>
      <point x="191" y="627"/>
      <point x="178" y="159"/>
      <point x="142" y="-141" type="curve"/>
      <point x="117" y="-340"/>
      <point x="74" y="-475"/>
      <point x="-30" y="-475" type="curve" smooth="yes"/>
      <point x="-55" y="-475"/>
      <point x="-78" y="-470"/>
      <point x="-93" y="-459" type="curve"/>
      <point x="-93" y="-404"/>
      <point x="-123" y="-366"/>
      <point x="-173" y="-365" type="curve" smooth="yes"/>
      <point x="-234" y="-363"/>
      <point x="-256" y="-418"/>
      <point x="-256" y="-449" type="curve" smooth="yes"/>
      <point x="-256" y="-518"/>
      <point x="-201" y="-555"/>
      <point x="-96" y="-555" type="curve" smooth="yes"/>
      <point x="248" y="-555"/>
      <point x="314" y="-166"/>
      <point x="340" y="225" type="curve"/>
      <point x="390" y="940" type="line"/>
      <point x="680" y="944" type="line"/>
      <point x="686" y="1024" type="line"/>
      <point x="396" y="1024" type="line"/>
      <point x="398" y="1049" type="line" smooth="yes"/>
      <point x="426" y="1460"/>
      <point x="580" y="1493"/>
      <point x="691" y="1491" type="curve" smooth="yes"/>
      <point x="783" y="1489"/>
      <point x="885" y="1442"/>
      <point x="924" y="1405" type="curve"/>
      <point x="873" y="1038"/>
      <point x="795" y="325"/>
      <point x="799" y="144" type="curve" smooth="yes"/>
      <point x="801" y="34"/>
      <point x="852" y="-23"/>
      <point x="963" y="-23" type="curve" smooth="yes"/>
      <point x="1127" y="-23"/>
      <point x="1211" y="169"/>
      <point x="1229" y="265" type="curve"/>
      <point x="1170" y="278" type="line"/>
      <point x="1129" y="132"/>
      <point x="1067" y="79"/>
      <point x="1022" y="79" type="curve" smooth="yes"/>
      <point x="969" y="79"/>
      <point x="965" y="134"/>
      <point x="965" y="187" type="curve" smooth="yes"/>
      <point x="965" y="384"/>
      <point x="1020" y="909"/>
      <point x="1057" y="1198" type="curve" smooth="yes"/>
      <point x="1069" y="1290"/>
      <point x="1096" y="1444"/>
      <point x="1112" y="1546" type="curve"/>
      <point x="1053" y="1546" type="line"/>
      <point x="951" y="1483"/>
      <point x="846" y="1556"/>
      <point x="701" y="1556" type="curve" smooth="yes"/>
    </contour>
  </outline>
</glyph>
<glyph name="Cedilla" format="1">
  <advance width="625"/>
  <outline>
    <contour>
      <point x="92" y="-446" type="line"/>
      <point x="231" y="-422"/>
      <point x="358" y="-360"/>
      <point x="362" y="-281" type="curve" smooth="yes"/>
      <point x="365" y="-231"/>
      <point x="330" y="-207"/>
      <point x="274" y="-213" type="curve" smooth="yes"/>
      <point x="246" y="-217"/>
      <point x="219" y="-225"/>
      <point x="195" y="-244" type="curve"/>
      <point x="129" y="-209" type="line"/>
      <point x="199" y="16" type="line"/>
      <point x="317" y="16" type="line"/>
      <point x="252" y="-154" type="line"/>
      <point x="293" y="-129"/>
      <point x="358" y="-117"/>
      <point x="391" y="-117" type="curve" smooth="yes"/>
      <point x="496" y="-117"/>
      <point x="537" y="-184"/>
      <point x="530" y="-262" type="curve" smooth="yes"/>
      <point x="518" y="-428"/>
      <point x="244" y="-494"/>
      <point x="104" y="-514" type="curve"/>
    </contour>
  </outline>
</glyph>
<glyph name="caroncomb.alt" format="1">
  <advance width="600"/>
  <outline>
    <contour>
      <point x="323" y="1466"/>
      <point x="326" y="1347"/>
      <point x="235" y="1175" type="curve"/>
      <point x="289" y="1135" type="line"/>
      <point x="374" y="1220"/>
      <point x="447" y="1329"/>
      <point x="457" y="1438" type="curve" smooth="yes"/>
      <point x="462" y="1486"/>
      <point x="457" y="1513"/>
      <point x="434" y="1561" type="curve"/>
      <point x="293" y="1588" type="line"/>
    </contour>
    <contour>
      <point x="104" y="1048" type="move" name="_top"/>
    </contour>
  </outline>
</glyph>
